<?xml version="1.0" encoding="utf-8"?>
<svg viewBox="291.065 243.095 163.629 23.499" xmlns="http://www.w3.org/2000/svg">
  <defs>
    <path id="path0_fill" fill-rule="evenodd" d="M 32.6944 0.0115159L 30.2579 10.1956L 29.3133 10.1956C 29.3904 7.95215 28.6445 5.75473 27.2074 3.99197C 26.5678 3.31758 25.7842 2.78555 24.9111 2.43273C 24.0379 2.07991 23.0958 1.91464 22.1502 1.94845C 19.6395 2.05675 17.2571 3.05097 15.4531 4.74297C 12.8865 7.10545 10.9477 10.0323 9.80171 13.2747C 8.58827 16.1985 7.95232 19.3164 7.9269 22.4668C 7.76459 24.7138 8.5011 26.9353 9.98415 28.6723C 10.7122 29.3967 11.5919 29.9622 12.5644 30.3309C 13.5369 30.6996 14.5797 30.863 15.6229 30.8101C 17.4621 30.8326 19.2781 30.4124 20.9076 29.5875C 22.7579 28.5569 24.3934 27.2016 25.73 25.5913L 26.8985 25.5913C 25.3573 28.0559 23.2744 30.1625 20.7974 31.7619C 18.4973 33.0029 15.8912 33.6151 13.2586 33.5329C 11.495 33.6086 9.73377 33.3367 8.08223 32.7335C 6.43069 32.1303 4.92338 31.2085 3.6519 30.0241C 2.43096 28.8188 1.47796 27.3846 0.851758 25.8098C 0.225558 24.2349 -0.0606827 22.5529 0.0106469 20.867C 0.0189323 17.3082 1.02051 13.8175 2.90956 10.7632C 4.94376 7.58621 7.7574 4.94383 11.1009 3.07041C 14.4443 1.197 18.2142 0.150501 22.0762 0.0237749C 23.8048 0.0809445 25.5173 0.366572 27.1659 0.872634C 27.8689 1.09519 28.5962 1.23812 29.3332 1.29872C 29.8118 1.26102 30.2773 1.12845 30.7005 0.909091C 31.1237 0.689729 31.4957 0.388316 31.7932 0.0237749L 32.6962 0.0237749L 32.6944 0.0115159ZM 53.9073 11.2121L 49.1826 26.931L 48.6949 28.8521C 48.6547 29.0244 48.6306 29.1998 48.6227 29.3762C 48.6206 29.5614 48.6947 29.7398 48.8286 29.8722C 48.8807 29.934 48.9454 29.9846 49.0188 30.021C 49.0921 30.0574 49.1725 30.0787 49.2548 30.0835C 49.7977 29.9852 50.2935 29.7207 50.669 29.329C 51.3069 28.6463 51.8924 27.9196 52.4209 27.1545L 53.2752 27.5807C 52.389 29.31 51.1309 30.8361 49.5853 32.0571C 48.3736 32.9595 46.8883 33.4505 45.359 33.4543C 44.9756 33.4799 44.5906 33.4314 44.2269 33.3115C 43.8631 33.1915 43.5277 33.0026 43.2403 32.7557C 42.9995 32.5269 42.8103 32.2524 42.6844 31.9494C 42.5585 31.6465 42.4988 31.3216 42.5089 30.9952C 42.6264 29.8275 42.8884 28.6777 43.2892 27.5703L 43.8725 25.649C 42.4996 28.1735 40.6587 30.4326 38.4415 32.3138C 37.535 33.0352 36.4006 33.4353 35.2266 33.4474C 34.5661 33.4865 33.908 33.3386 33.3329 33.0219C 32.7578 32.7052 32.2905 32.2335 31.9882 31.6642C 31.309 30.4241 30.9655 29.0379 30.9894 27.6349C 31.1052 24.9697 31.8201 22.361 33.0845 19.9902C 34.3353 17.2955 36.2198 14.9206 38.5878 13.0547C 40.0344 11.7718 41.8905 11.0048 43.8491 10.8803C 44.2488 10.8622 44.6481 10.9205 45.0244 11.0521C 45.4007 11.1837 45.7464 11.3859 46.0417 11.6471C 46.7239 12.4417 47.1469 13.4142 47.2572 14.4415L 48.135 11.5352L 53.9073 11.2121ZM 46.1104 15.7025C 46.1879 14.7434 45.9765 13.7831 45.5016 12.9377C 45.37 12.7502 45.1916 12.5978 44.983 12.4946C 44.7743 12.3915 44.542 12.3409 44.3078 12.3474C 43.7144 12.3857 43.1579 12.6388 42.7491 13.0564C 41.1877 14.7957 39.9921 16.8128 39.229 18.9947C 38.099 21.4362 37.4584 24.0629 37.3415 26.7354C 37.2887 27.3659 37.4375 27.9969 37.7678 28.543C 37.8663 28.7017 38.0029 28.8352 38.1661 28.9319C 38.3293 29.0286 38.5142 29.0858 38.7052 29.0985C 39.1436 29.0592 39.5682 28.9296 39.9507 28.7188C 40.3332 28.5079 40.6648 28.2206 40.9231 27.8759C 42.0789 26.5801 43.0507 25.1411 43.8129 23.5969C 45.193 21.1699 45.979 18.4692 46.1104 15.7025ZM 66.7634 10.882L 63.0861 24.1558C 66.106 17.6796 68.3793 13.6934 69.9061 12.1972C 70.2582 11.8015 70.6905 11.48 71.1765 11.2525C 71.6624 11.0251 72.1914 10.8966 72.7308 10.8751C 73.0453 10.8654 73.3579 10.9252 73.6449 11.0499C 73.9319 11.1746 74.1858 11.3608 74.3871 11.5946C 74.8444 12.1811 75.0687 12.9069 75.0192 13.6398C 75.0676 15.0086 74.6674 16.357 73.876 17.4927C 73.71 17.7742 73.4749 18.0118 73.1914 18.1845C 72.9079 18.3573 72.5846 18.4598 72.2504 18.483C 71.9454 18.4907 71.6447 18.4121 71.3851 18.257C 71.1256 18.1019 70.9186 17.877 70.7893 17.6097C 70.6104 17.2392 70.3814 16.8932 70.1084 16.5809C 69.9925 16.4847 69.8456 16.4305 69.6929 16.4273C 69.5129 16.4321 69.3371 16.4807 69.1818 16.5688C 68.6318 16.9433 68.1573 17.4121 67.782 17.952C 66.954 19.1071 66.2404 20.3351 65.6508 21.6197C 64.808 23.3383 64.1506 24.7938 63.6786 25.9861C 62.8982 28.2159 62.2393 30.4837 61.7044 32.7802L 55.811 32.7802L 59.8296 17.1119C 60.0501 16.3542 60.1971 15.5784 60.2686 14.7943C 60.2883 14.4491 60.2076 14.1053 60.0355 13.8022C 59.8867 13.5679 59.6657 13.3846 59.4034 13.2783C 58.8608 13.1319 58.297 13.073 57.7346 13.1036L 57.9531 12.4172L 65.3095 10.8593L 66.7706 10.8593L 66.7634 10.882ZM 87.6115 10.882L 84.496 21.0435C 85.9015 18.861 87.4294 16.7543 89.0727 14.7331C 90.0546 13.516 91.2357 12.4623 92.5693 11.6138C 93.4105 11.1451 94.3621 10.8931 95.3328 10.882C 95.7628 10.844 96.196 10.908 96.5948 11.0684C 96.9935 11.2288 97.3457 11.4808 97.6211 11.8025C 98.082 12.3863 98.3309 13.1009 98.3291 13.8355C 98.2587 14.9917 98.0378 16.1348 97.6717 17.2377L 96.5736 21.0435C 97.9686 18.8661 99.4899 16.7669 101.13 14.7558C 102.176 13.4756 103.436 12.3729 104.857 11.4933C 105.565 11.0904 106.372 10.8787 107.194 10.8803C 107.593 10.87 107.991 10.9392 108.362 11.0834C 108.733 11.2275 109.069 11.4437 109.35 11.7186C 109.64 12.0073 109.865 12.3498 110.014 12.7254C 110.162 13.101 110.23 13.5018 110.213 13.9036C 110.158 15.2374 109.915 16.5577 109.491 17.8281L 106.782 26.641C 106.485 27.4609 106.281 28.3095 106.173 29.1718C 106.177 29.3039 106.234 29.4292 106.332 29.5211C 106.374 29.5734 106.427 29.6162 106.488 29.6464C 106.549 29.6766 106.616 29.6935 106.684 29.6958C 106.856 29.697 107.021 29.6344 107.147 29.5211C 107.854 28.9345 108.476 28.259 108.998 27.5126C 109.144 27.324 109.363 27.0329 109.655 26.6393L 110.484 27.1633C 109.613 28.8988 108.353 30.4246 106.794 31.6292C 105.742 32.4686 104.441 32.9644 103.079 33.0456C 102.209 33.0872 101.354 32.804 100.693 32.2544C 100.412 32.0275 100.186 31.7439 100.03 31.4236C 99.8738 31.1032 99.792 30.7538 99.7902 30.3997C 99.8582 29.3549 100.063 28.3225 100.399 27.3274L 103.151 18.111C 103.416 17.3341 103.603 16.5346 103.711 15.7235C 103.708 15.662 103.69 15.6019 103.661 15.5471C 103.632 15.4924 103.591 15.4442 103.542 15.4056C 103.453 15.3136 103.33 15.2585 103.2 15.2519C 102.981 15.2536 102.764 15.3019 102.566 15.3933C 102.035 15.7351 101.556 16.1466 101.141 16.6159C 100.137 17.7391 99.2134 18.9278 98.3779 20.1736C 97.4435 21.4469 96.6091 22.7862 95.8818 24.1802C 95.3254 25.3888 94.8647 26.6365 94.5037 27.9126L 93.0191 32.7819L 86.8566 32.7819L 91.4116 17.3494C 91.5996 16.79 91.7208 16.2116 91.7729 15.6256C 91.7709 15.5662 91.7559 15.5079 91.7288 15.4546C 91.7017 15.4013 91.6631 15.3542 91.6157 15.3165C 91.5288 15.2305 91.4113 15.1799 91.2871 15.175C 90.0937 15.6007 89.0876 16.4096 88.437 17.4665C 86.2892 20.0918 84.4738 22.9561 83.0294 25.9983L 81.0571 32.7819L 74.8458 32.7819L 79.4262 17.587C 79.7876 16.5544 80.0164 15.4827 80.1071 14.3961C 80.1132 14.1657 80.0449 13.9394 79.912 13.7481C 79.7523 13.5459 79.5313 13.3969 79.2799 13.322C 78.7302 13.1914 78.1636 13.1396 77.5983 13.1682L 77.8422 12.2706L 86.1503 10.8732L 87.6115 10.8732L 87.6115 10.882ZM 120.953 23.9269C 120.824 24.7638 120.751 25.6081 120.736 26.4542C 120.711 26.9715 120.793 27.4886 120.976 27.9754C 121.159 28.4622 121.439 28.9091 121.802 29.2906C 122.171 29.6501 122.614 29.9306 123.102 30.1139C 123.591 30.2971 124.114 30.379 124.637 30.3543C 125.824 30.3433 126.992 30.0684 128.051 29.5508C 129.512 28.8 130.855 27.8534 132.042 26.7389L 132.765 27.3764C 131.269 29.2562 129.418 30.8445 127.31 32.0571C 125.507 32.9955 123.488 33.4763 121.44 33.4543C 120.416 33.5691 119.379 33.4588 118.405 33.1316C 117.431 32.8044 116.546 32.2687 115.816 31.5646C 114.786 30.3291 114.235 28.7848 114.257 27.1982C 114.302 24.4599 115.106 21.7834 116.584 19.4471C 118.111 16.8842 120.293 14.7437 122.921 13.2311C 125.325 11.748 128.107 10.9385 130.959 10.8925C 132.081 10.8128 133.192 11.1507 134.065 11.8373C 134.404 12.141 134.673 12.5106 134.853 12.9218C 135.034 13.333 135.122 13.7765 135.113 14.2232C 135.101 15.4132 134.744 16.5761 134.083 17.58C 133.187 19.0144 131.972 20.2376 130.525 21.1604C 129.045 22.088 127.424 22.7858 125.721 23.2283C 124.158 23.5997 122.563 23.8335 120.956 23.9269L 120.953 23.9269ZM 121.169 22.7044C 122.312 22.575 123.43 22.2928 124.493 21.866C 125.372 21.4521 126.158 20.8739 126.805 20.1649C 127.623 19.2903 128.288 18.2922 128.773 17.2098C 129.295 16.166 129.578 15.0259 129.604 13.8669C 129.616 13.6766 129.589 13.4858 129.524 13.3059C 129.459 13.1259 129.357 12.9603 129.225 12.8189C 129.101 12.6953 128.952 12.5978 128.787 12.5326C 128.622 12.4674 128.445 12.4358 128.268 12.4399C 127.74 12.5179 127.234 12.6986 126.781 12.9712C 126.327 13.2438 125.936 13.6027 125.631 14.0258C 123.515 16.5716 121.995 19.5297 121.173 22.6974L 121.169 22.7044ZM 148.623 10.889L 145.606 21.0189C 146.988 18.9027 148.508 16.8743 150.158 14.9462C 151.25 13.6849 152.542 12.5996 153.987 11.7308C 154.902 11.207 155.94 10.915 157.003 10.882C 157.41 10.8765 157.814 10.9549 158.188 11.1118C 158.561 11.2687 158.896 11.5005 159.17 11.7919C 159.785 12.4362 160.109 13.2899 160.073 14.1655C 160.036 15.2594 159.835 16.3424 159.477 17.3809L 156.371 27.4724C 156.172 28.0308 156.039 28.609 155.974 29.1963C 155.98 29.354 156.044 29.5045 156.154 29.6206C 156.201 29.6756 156.258 29.7208 156.324 29.7536C 156.389 29.7863 156.46 29.8058 156.533 29.811C 156.725 29.8028 156.908 29.7361 157.057 29.6206C 157.719 29.0546 158.296 28.4027 158.773 27.6837C 158.918 27.4636 159.152 27.133 159.477 26.6917L 160.417 27.2349C 158.033 31.1262 155.522 33.0718 152.885 33.0718C 152.026 33.1204 151.179 32.8499 150.519 32.3156C 150.246 32.0776 150.028 31.7854 149.882 31.4591C 149.735 31.1327 149.663 30.7798 149.67 30.4241C 149.736 29.4209 149.93 28.4295 150.248 27.4724L 153.3 17.3809C 153.474 16.9084 153.578 16.4145 153.608 15.9138C 153.607 15.8266 153.587 15.7404 153.55 15.661C 153.512 15.5816 153.458 15.5106 153.391 15.4527C 153.324 15.3885 153.246 15.3378 153.159 15.3036C 153.072 15.2694 152.979 15.2524 152.885 15.2537C 152.01 15.3857 151.214 15.82 150.645 16.4762C 147.95 19.1939 145.751 22.3346 144.143 25.7643L 142.139 32.7837L 135.925 32.7837L 140.495 17.6115C 140.84 16.5767 141.059 15.5063 141.145 14.4223C 141.151 14.1833 141.082 13.9482 140.947 13.7481C 140.787 13.5459 140.566 13.3969 140.314 13.322C 139.771 13.1918 139.211 13.14 138.653 13.1682L 138.924 12.2706L 147.142 10.8732L 148.623 10.8732L 148.623 10.889ZM 204.613 0.0185515L 201.867 10.889L 201.054 10.889C 200.949 9.48918 200.633 8.11175 200.115 6.80036C 199.534 5.4452 198.593 4.26246 197.388 3.37188C 196.336 2.59157 195.048 2.16805 193.722 2.16676C 193.097 2.16695 192.48 2.29216 191.908 2.53443C 191.336 2.7767 190.822 3.13083 190.398 3.57453C 189.954 3.98596 189.599 4.47901 189.354 5.02483C 189.109 5.57064 188.979 6.15827 188.972 6.75324C 188.99 7.96325 189.332 9.14798 189.965 10.1922C 191.294 12.0696 192.859 13.7797 194.625 15.2833C 196.201 16.621 197.538 18.2021 198.58 19.9623C 199.263 21.2822 199.61 22.741 199.592 24.2168C 199.603 25.8982 199.113 27.5472 198.183 28.9675C 197.191 30.4577 195.764 31.6296 194.083 32.3348C 192.161 33.1559 190.078 33.5629 187.978 33.5276C 186.205 33.4855 184.439 33.2839 182.704 32.9251C 181.313 32.6194 179.901 32.4179 178.478 32.3225C 177.973 32.3158 177.47 32.4 176.997 32.5706C 176.415 32.8215 175.869 33.1431 175.371 33.5276L 174.414 33.5276L 177.358 21.3019L 178.279 21.3019C 178.43 23.1829 178.887 25.0291 179.634 26.7721C 180.233 28.1913 181.243 29.4137 182.542 30.2931C 183.824 31.1372 185.344 31.5788 186.895 31.5576C 187.639 31.5763 188.38 31.4488 189.072 31.1829C 189.764 30.9169 190.394 30.5179 190.922 30.0101C 191.432 29.5433 191.837 28.9808 192.113 28.357C 192.39 27.7332 192.531 27.0612 192.53 26.3825C 192.525 25.1936 192.214 24.0245 191.627 22.9803C 190.448 21.233 189.046 19.6369 187.454 18.2297C 185.655 16.6159 184.137 14.7322 182.957 12.6512C 182.359 11.4414 182.05 10.1167 182.054 8.77567C 182.052 7.60612 182.311 6.45003 182.813 5.38588C 183.315 4.32173 184.048 3.37445 184.962 2.60862C 187.04 0.824866 189.754 -0.10712 192.53 0.00981027C 194.423 0.0836821 196.299 0.392996 198.11 0.930198C 199.037 1.2173 199.994 1.40016 200.964 1.47514C 201.405 1.48013 201.839 1.37807 202.229 1.17826C 202.736 0.867614 203.183 0.471939 203.547 0.00981027L 204.613 0.00981027L 204.613 0.0185515ZM 217.544 5.12023L 215.594 11.5509L 218.791 11.5509L 217.942 14.2686L 214.799 14.2686L 210.735 27.9755C 210.511 28.6002 210.377 29.252 210.338 29.9123C 210.335 30.1105 210.413 30.3018 210.555 30.4451C 210.615 30.5136 210.69 30.5689 210.774 30.6074C 210.858 30.646 210.949 30.6668 211.042 30.6686C 211.356 30.654 211.655 30.5377 211.891 30.3385C 212.907 29.5078 213.789 28.5361 214.51 27.4549L 215.359 27.9789C 214.468 29.6195 213.202 31.0419 211.656 32.1375C 210.5 32.9558 209.115 33.4166 207.683 33.4595C 206.752 33.5153 205.834 33.224 205.118 32.6456C 204.819 32.3858 204.581 32.0662 204.422 31.7088C 204.263 31.3515 204.186 30.9649 204.197 30.576C 204.248 29.3813 204.461 28.1982 204.829 27.0568L 208.676 14.2721L 205.371 14.2721L 205.859 12.5255C 207.723 11.8911 209.491 11.017 211.115 9.92663C 213.01 8.51064 214.741 6.90157 216.28 5.12716L 217.544 5.12716L 217.544 5.12023ZM 224.913 23.9339C 224.771 24.7696 224.692 25.6143 224.679 26.4612C 224.654 26.9786 224.736 27.4955 224.918 27.9823C 225.101 28.4691 225.382 28.9161 225.744 29.2975C 226.115 29.6556 226.558 29.9352 227.046 30.1183C 227.534 30.3015 228.057 30.3842 228.58 30.3612C 229.772 30.3483 230.945 30.0737 232.012 29.5578C 233.464 28.8018 234.801 27.8555 235.985 26.7458L 236.726 27.3833C 235.219 29.2601 233.363 30.8477 231.253 32.0641C 229.45 33.0026 227.43 33.4833 225.383 33.4613C 224.36 33.5771 223.323 33.4672 222.35 33.1399C 221.377 32.8126 220.494 32.2764 219.766 31.5715C 218.734 30.3374 218.185 28.7918 218.213 27.2052C 218.26 24.4691 219.058 21.7944 220.525 19.454C 222.054 16.8926 224.237 14.7526 226.864 13.2381C 229.274 11.7523 232.062 10.9427 234.919 10.8995C 236.036 10.8224 237.14 11.1604 238.008 11.8444C 238.35 12.1455 238.621 12.5147 238.801 12.9265C 238.982 13.3383 239.069 13.783 239.055 14.2302C 239.044 15.4202 238.687 16.5832 238.026 17.587C 237.135 19.0253 235.919 20.2495 234.468 21.1674C 232.994 22.0949 231.379 22.7926 229.682 23.2353C 228.118 23.6015 226.523 23.8329 224.917 23.9269L 224.913 23.9339ZM 225.13 22.7113C 226.272 22.5796 227.39 22.2976 228.454 21.873C 229.327 21.4501 230.111 20.8732 230.765 20.1719C 231.584 19.3009 232.244 18.3016 232.716 17.2167C 233.238 16.1729 233.521 15.0328 233.547 13.8738C 233.559 13.6835 233.532 13.4929 233.466 13.3129C 233.401 13.1329 233.3 12.9674 233.167 12.8259C 233.045 12.7011 232.896 12.6027 232.731 12.5374C 232.566 12.4721 232.388 12.4412 232.21 12.4469C 231.683 12.5248 231.177 12.7057 230.724 12.9783C 230.27 13.2509 229.879 13.6096 229.573 14.0328C 227.465 16.578 225.951 19.5336 225.134 22.6974L 225.13 22.7113ZM 252.312 14.3279L 249.459 25.2455C 248.586 29.1063 247.277 32.8628 245.558 36.4479C 244.535 38.4877 243.009 40.2531 241.115 41.588C 239.391 42.7055 237.355 43.2869 235.281 43.2542C 234.203 43.3358 233.128 43.0652 232.228 42.4857C 231.931 42.2788 231.688 42.0075 231.519 41.6937C 231.35 41.3798 231.258 41.0319 231.253 40.678C 231.253 40.3577 231.326 40.0415 231.467 39.7515C 231.607 39.4615 231.812 39.2048 232.066 38.9995C 232.651 38.5121 233.407 38.2586 234.179 38.2905C 234.482 38.2687 234.787 38.3055 235.075 38.3987C 235.364 38.492 235.63 38.6398 235.859 38.8337C 236.053 39.0082 236.206 39.2207 236.309 39.4571C 236.412 39.6935 236.462 39.9483 236.455 40.2047C 236.472 40.4068 236.447 40.6103 236.382 40.8031C 236.317 40.9959 236.212 41.1742 236.075 41.3277C 235.915 41.4576 235.791 41.6239 235.714 41.8116L 235.841 41.9862C 235.936 42.0643 236.058 42.1059 236.184 42.1032C 236.643 42.1139 237.09 41.9532 237.43 41.6543C 238.282 40.9182 238.939 39.9944 239.344 38.9612C 239.633 38.2369 240.193 36.3227 241.024 33.2185L 245.991 14.3367L 242.614 14.3367L 243.408 11.5719C 244.319 11.6474 245.234 11.4921 246.063 11.1213C 246.826 10.5692 247.429 9.83745 247.815 8.9958C 249.159 6.33215 251.088 3.98464 253.468 2.11783C 255.388 0.751738 257.713 0.0227687 260.097 0.0395518C 261.299 -0.0600401 262.5 0.248763 263.492 0.912822C 263.836 1.18855 264.111 1.53615 264.295 1.92947C 264.48 2.32279 264.57 2.75152 264.558 3.1833C 264.597 3.89727 264.344 4.59739 263.854 5.13239C 263.63 5.36505 263.359 5.54962 263.057 5.67392C 262.755 5.79821 262.43 5.85949 262.102 5.85375C 261.807 5.86407 261.512 5.81709 261.236 5.7157C 260.96 5.61432 260.708 5.46055 260.494 5.2634C 260.29 5.08444 260.128 4.86524 260.019 4.6206C 259.91 4.37595 259.857 4.11153 259.862 3.84519C 259.875 3.40007 260.012 2.96668 260.259 2.59125C 260.457 2.32325 260.593 2.01693 260.657 1.69346C 260.661 1.61421 260.647 1.53508 260.615 1.46171C 260.584 1.38833 260.537 1.32256 260.476 1.26908C 260.413 1.21306 260.339 1.16966 260.258 1.14148C 260.178 1.1133 260.092 1.10091 260.007 1.10492C 259.415 1.16703 258.845 1.35354 258.337 1.65135C 257.828 1.94916 257.393 2.35103 257.063 2.82875C 255.049 5.40708 253.677 8.39943 253.053 11.5736L 256.593 11.5736L 255.744 14.3384L 252.312 14.3384L 252.312 14.3279ZM 268.008 14.3279L 265.172 25.2455C 264.299 29.1063 262.991 32.8628 261.271 36.4479C 260.248 38.4877 258.722 40.2531 256.828 41.588C 255.104 42.7055 253.069 43.2869 250.994 43.2542C 249.916 43.3385 248.84 43.0676 247.941 42.4857C 247.644 42.2788 247.402 42.0075 247.232 41.6937C 247.063 41.3798 246.972 41.0319 246.966 40.678C 246.967 40.3577 247.039 40.0415 247.18 39.7515C 247.32 39.4615 247.525 39.2048 247.779 38.9995C 248.363 38.5094 249.12 38.2556 249.892 38.2905C 250.196 38.2687 250.5 38.3055 250.788 38.3987C 251.077 38.492 251.343 38.6398 251.572 38.8337C 251.764 39.0091 251.915 39.2222 252.014 39.4587C 252.114 39.6951 252.16 39.9495 252.15 40.2047C 252.17 40.4057 252.148 40.6084 252.086 40.8012C 252.024 40.994 251.923 41.173 251.789 41.3277C 251.629 41.4576 251.505 41.6239 251.427 41.8116L 251.554 41.9862C 251.648 42.067 251.771 42.109 251.897 42.1032C 252.352 42.117 252.793 41.9555 253.125 41.6543C 253.988 40.9239 254.652 39.9989 255.058 38.9612C 255.347 38.2369 255.907 36.3227 256.737 33.2185L 261.704 14.3367L 258.327 14.3367L 259.122 11.5719C 260.032 11.6474 260.947 11.4921 261.777 11.1213C 262.539 10.5692 263.142 9.83745 263.528 8.9958C 264.866 6.32852 266.796 3.97984 269.182 2.11783C 271.101 0.751738 273.427 0.0227687 275.81 0.0395518C 277.013 -0.0600401 278.213 0.248763 279.206 0.912822C 279.55 1.18855 279.824 1.53615 280.009 1.92947C 280.193 2.32279 280.283 2.75152 280.271 3.1833C 280.31 3.89727 280.057 4.59739 279.567 5.13239C 279.34 5.36535 279.066 5.5499 278.761 5.67413C 278.456 5.79835 278.128 5.85954 277.797 5.85375C 277.502 5.86251 277.208 5.81487 276.932 5.71357C 276.657 5.61227 276.404 5.45927 276.189 5.2634C 275.988 5.08216 275.828 4.86258 275.72 4.61846C 275.611 4.37435 275.555 4.111 275.557 3.84519C 275.577 3.39871 275.72 2.96564 275.973 2.59125C 276.163 2.31893 276.297 2.01426 276.37 1.69346C 276.37 1.53449 276.305 1.38197 276.189 1.26908C 276.055 1.15554 275.88 1.09672 275.702 1.10492C 275.111 1.16899 274.542 1.35627 274.034 1.65391C 273.526 1.95154 273.09 2.35243 272.758 2.82875C 270.758 5.41292 269.393 8.40342 268.766 11.5736L 272.306 11.5736L 271.439 14.3384L 268.008 14.3384L 268.008 14.3279ZM 279.368 23.9462C 279.239 24.7831 279.167 25.6273 279.151 26.4734C 279.124 26.9896 279.202 27.506 279.382 27.9928C 279.562 28.4797 279.84 28.9273 280.199 29.3098C 280.569 29.6679 281.013 29.9475 281.501 30.1306C 281.989 30.3137 282.512 30.3965 283.035 30.3734C 284.227 30.3606 285.4 30.0858 286.466 29.57C 287.921 28.8182 289.259 27.8716 290.44 26.7581L 291.18 27.3956C 289.68 29.2714 287.83 30.859 285.726 32.0763C 283.922 33.0126 281.903 33.4932 279.856 33.4735C 278.83 33.5873 277.791 33.4767 276.816 33.1495C 275.84 32.8224 274.953 32.2873 274.221 31.5838C 273.197 30.3455 272.648 28.8027 272.668 27.2174C 272.713 24.4787 273.518 21.802 274.997 19.4663C 276.52 16.9057 278.697 14.7655 281.319 13.2503C 283.729 11.7669 286.517 10.9575 289.374 10.9117C 290.491 10.8289 291.598 11.1675 292.463 11.8566C 292.805 12.1578 293.076 12.5268 293.256 12.9386C 293.437 13.3504 293.524 13.7952 293.51 14.2423C 293.496 15.4296 293.147 16.5905 292.499 17.5992C 291.598 19.0298 290.383 20.2519 288.941 21.1796C 287.461 22.1072 285.84 22.8049 284.136 23.2475C 282.572 23.6096 280.978 23.8369 279.372 23.9269L 279.368 23.9462ZM 279.585 22.7236C 280.727 22.5919 281.845 22.3098 282.908 21.8853C 283.785 21.4668 284.569 20.8893 285.22 20.1841C 286.039 19.3096 286.704 18.3113 287.189 17.229C 287.697 16.1814 287.974 15.0429 288.002 13.8861C 288.017 13.697 287.992 13.5068 287.93 13.3269C 287.868 13.1469 287.77 12.9807 287.64 12.8381C 287.514 12.7129 287.362 12.6145 287.194 12.5492C 287.026 12.484 286.846 12.4533 286.665 12.4591C 286.14 12.5378 285.637 12.719 285.187 12.9916C 284.737 13.2642 284.348 13.6227 284.046 14.045C 281.933 16.5851 280.413 19.5365 279.589 22.6974L 279.585 22.7236ZM 307.038 10.9082L 304.004 21.0381C 305.396 18.9246 306.922 16.8965 308.573 14.9654C 309.66 13.7053 310.946 12.62 312.384 11.75C 313.306 11.2257 314.35 10.9338 315.419 10.9013C 315.825 10.8992 316.228 10.979 316.601 11.1357C 316.974 11.2924 317.31 11.5224 317.586 11.8112C 318.195 12.4577 318.513 13.3114 318.471 14.1848C 318.441 15.278 318.246 16.3611 317.893 17.4001L 314.768 27.4916C 314.581 28.0521 314.454 28.6298 314.389 29.2154C 314.388 29.2943 314.403 29.3726 314.434 29.4456C 314.465 29.5186 314.511 29.5847 314.57 29.6399C 314.616 29.6949 314.674 29.74 314.739 29.7727C 314.804 29.8055 314.876 29.825 314.949 29.8302C 315.134 29.8212 315.312 29.7545 315.455 29.6399C 316.127 29.0795 316.711 28.4269 317.189 27.703C 317.333 27.4829 317.568 27.1523 317.893 26.711L 318.814 27.2541C 316.43 31.1454 313.926 33.091 311.301 33.091C 310.441 33.1427 309.593 32.8718 308.935 32.3348C 308.658 32.0993 308.438 31.8077 308.292 31.4807C 308.145 31.1537 308.075 30.7995 308.086 30.4433C 308.143 29.439 308.337 28.4465 308.664 27.4916L 311.716 17.4001C 311.881 16.9252 311.984 16.4325 312.023 15.933C 312.022 15.8458 312.003 15.7597 311.965 15.6803C 311.928 15.6009 311.874 15.5299 311.806 15.472C 311.671 15.345 311.489 15.2736 311.301 15.2729C 310.423 15.3974 309.625 15.8332 309.061 16.4955C 306.36 19.2087 304.16 22.3504 302.559 25.7835L 300.554 32.8029L 294.341 32.8029L 298.893 17.6306C 299.25 16.5983 299.475 15.5271 299.561 14.4415C 299.567 14.2025 299.497 13.9674 299.362 13.7673C 299.202 13.5651 298.981 13.4161 298.73 13.3411C 298.187 13.211 297.627 13.1592 297.068 13.1874L 297.339 12.2898L 305.539 10.8925L 307.038 10.8925L 307.038 10.9082ZM 340 10.9082L 338.934 18.2087L 338.031 18.2087C 338.005 16.5616 337.371 14.9777 336.243 13.7428C 335.823 13.2558 335.303 12.8593 334.715 12.5786C 334.127 12.298 333.485 12.1394 332.83 12.1133C 332.148 12.0869 331.482 12.3152 330.969 12.7508C 330.74 12.9402 330.556 13.176 330.431 13.4416C 330.306 13.7072 330.244 13.996 330.247 14.2878C 330.247 14.7754 330.351 15.2578 330.554 15.7043C 330.938 16.3659 331.418 16.9705 331.981 17.4996C 333.729 19.1814 335.291 21.0353 336.641 23.031C 337.194 24.0259 337.48 25.1393 337.471 26.269C 337.473 27.5086 337.136 28.7267 336.496 29.8006C 335.815 30.945 334.805 31.8734 333.588 32.4727C 332.354 33.128 330.969 33.4728 329.561 33.4753C 328.379 33.4394 327.208 33.2568 326.075 32.9321C 325.413 32.724 324.728 32.5972 324.034 32.5548C 323.705 32.5377 323.377 32.5977 323.077 32.7295C 322.776 32.9264 322.518 33.1786 322.318 33.4718L 321.433 33.4718L 322.625 25.6019L 323.402 25.6019C 323.769 27.0153 324.303 28.3835 324.991 29.68C 325.476 30.4765 326.159 31.143 326.978 31.6187C 327.69 32.0639 328.514 32.3127 329.362 32.3383C 329.77 32.3521 330.176 32.2872 330.557 32.1475C 330.939 32.0077 331.288 31.796 331.583 31.5244C 331.86 31.2753 332.08 30.9732 332.229 30.6373C 332.379 30.3014 332.454 29.9391 332.45 29.5735C 332.451 28.823 332.259 28.0842 331.891 27.4235C 331.133 26.2568 330.249 25.1714 329.253 24.1854C 327.82 22.7875 326.559 21.2331 325.497 19.5536C 325.058 18.7199 324.841 17.7937 324.865 16.8586C 324.845 16.0579 325.007 15.2627 325.337 14.5283C 325.668 13.7938 326.16 13.1377 326.779 12.6058C 328.275 11.3937 330.196 10.7845 332.143 10.9047C 333.394 10.9389 334.637 11.1149 335.846 11.4287C 336.417 11.5807 337.005 11.668 337.598 11.689C 337.9 11.6925 338.199 11.623 338.467 11.487C 338.735 11.3511 338.964 11.1528 339.133 10.91L 340 10.91L 340 10.9082Z"/>
    <path id="path-1" fill-rule="evenodd" d="M 32.6944 0.0115159L 30.2579 10.1956L 29.3133 10.1956C 29.3904 7.95215 28.6445 5.75473 27.2074 3.99197C 26.5678 3.31758 25.7842 2.78555 24.9111 2.43273C 24.0379 2.07991 23.0958 1.91464 22.1502 1.94845C 19.6395 2.05675 17.2571 3.05097 15.4531 4.74297C 12.8865 7.10545 10.9477 10.0323 9.80171 13.2747C 8.58827 16.1985 7.95232 19.3164 7.9269 22.4668C 7.76459 24.7138 8.5011 26.9353 9.98415 28.6723C 10.7122 29.3967 11.5919 29.9622 12.5644 30.3309C 13.5369 30.6996 14.5797 30.863 15.6229 30.8101C 17.4621 30.8326 19.2781 30.4124 20.9076 29.5875C 22.7579 28.5569 24.3934 27.2016 25.73 25.5913L 26.8985 25.5913C 25.3573 28.0559 23.2744 30.1625 20.7974 31.7619C 18.4973 33.0029 15.8912 33.6151 13.2586 33.5329C 11.495 33.6086 9.73377 33.3367 8.08223 32.7335C 6.43069 32.1303 4.92338 31.2085 3.6519 30.0241C 2.43096 28.8188 1.47796 27.3846 0.851758 25.8098C 0.225558 24.2349 -0.0606827 22.5529 0.0106469 20.867C 0.0189323 17.3082 1.02051 13.8175 2.90956 10.7632C 4.94376 7.58621 7.7574 4.94383 11.1009 3.07041C 14.4443 1.197 18.2142 0.150501 22.0762 0.0237749C 23.8048 0.0809445 25.5173 0.366572 27.1659 0.872634C 27.8689 1.09519 28.5962 1.23812 29.3332 1.29872C 29.8118 1.26102 30.2773 1.12845 30.7005 0.909091C 31.1237 0.689729 31.4957 0.388316 31.7932 0.0237749L 32.6962 0.0237749L 32.6944 0.0115159ZM 53.9073 11.2121L 49.1826 26.931L 48.6949 28.8521C 48.6547 29.0244 48.6306 29.1998 48.6227 29.3762C 48.6206 29.5614 48.6947 29.7398 48.8286 29.8722C 48.8807 29.934 48.9454 29.9846 49.0188 30.021C 49.0921 30.0574 49.1725 30.0787 49.2548 30.0835C 49.7977 29.9852 50.2935 29.7207 50.669 29.329C 51.3069 28.6463 51.8924 27.9196 52.4209 27.1545L 53.2752 27.5807C 52.389 29.31 51.1309 30.8361 49.5853 32.0571C 48.3736 32.9595 46.8883 33.4505 45.359 33.4543C 44.9756 33.4799 44.5906 33.4314 44.2269 33.3115C 43.8631 33.1915 43.5277 33.0026 43.2403 32.7557C 42.9995 32.5269 42.8103 32.2524 42.6844 31.9494C 42.5585 31.6465 42.4988 31.3216 42.5089 30.9952C 42.6264 29.8275 42.8884 28.6777 43.2892 27.5703L 43.8725 25.649C 42.4996 28.1735 40.6587 30.4326 38.4415 32.3138C 37.535 33.0352 36.4006 33.4353 35.2266 33.4474C 34.5661 33.4865 33.908 33.3386 33.3329 33.0219C 32.7578 32.7052 32.2905 32.2335 31.9882 31.6642C 31.309 30.4241 30.9655 29.0379 30.9894 27.6349C 31.1052 24.9697 31.8201 22.361 33.0845 19.9902C 34.3353 17.2955 36.2198 14.9206 38.5878 13.0547C 40.0344 11.7718 41.8905 11.0048 43.8491 10.8803C 44.2488 10.8622 44.6481 10.9205 45.0244 11.0521C 45.4007 11.1837 45.7464 11.3859 46.0417 11.6471C 46.7239 12.4417 47.1469 13.4142 47.2572 14.4415L 48.135 11.5352L 53.9073 11.2121ZM 46.1104 15.7025C 46.1879 14.7434 45.9765 13.7831 45.5016 12.9377C 45.37 12.7502 45.1916 12.5978 44.983 12.4946C 44.7743 12.3915 44.542 12.3409 44.3078 12.3474C 43.7144 12.3857 43.1579 12.6388 42.7491 13.0564C 41.1877 14.7957 39.9921 16.8128 39.229 18.9947C 38.099 21.4362 37.4584 24.0629 37.3415 26.7354C 37.2887 27.3659 37.4375 27.9969 37.7678 28.543C 37.8663 28.7017 38.0029 28.8352 38.1661 28.9319C 38.3293 29.0286 38.5142 29.0858 38.7052 29.0985C 39.1436 29.0592 39.5682 28.9296 39.9507 28.7188C 40.3332 28.5079 40.6648 28.2206 40.9231 27.8759C 42.0789 26.5801 43.0507 25.1411 43.8129 23.5969C 45.193 21.1699 45.979 18.4692 46.1104 15.7025ZM 66.7634 10.882L 63.0861 24.1558C 66.106 17.6796 68.3793 13.6934 69.9061 12.1972C 70.2582 11.8015 70.6905 11.48 71.1765 11.2525C 71.6624 11.0251 72.1914 10.8966 72.7308 10.8751C 73.0453 10.8654 73.3579 10.9252 73.6449 11.0499C 73.9319 11.1746 74.1858 11.3608 74.3871 11.5946C 74.8444 12.1811 75.0687 12.9069 75.0192 13.6398C 75.0676 15.0086 74.6674 16.357 73.876 17.4927C 73.71 17.7742 73.4749 18.0118 73.1914 18.1845C 72.9079 18.3573 72.5846 18.4598 72.2504 18.483C 71.9454 18.4907 71.6447 18.4121 71.3851 18.257C 71.1256 18.1019 70.9186 17.877 70.7893 17.6097C 70.6104 17.2392 70.3814 16.8932 70.1084 16.5809C 69.9925 16.4847 69.8456 16.4305 69.6929 16.4273C 69.5129 16.4321 69.3371 16.4807 69.1818 16.5688C 68.6318 16.9433 68.1573 17.4121 67.782 17.952C 66.954 19.1071 66.2404 20.3351 65.6508 21.6197C 64.808 23.3383 64.1506 24.7938 63.6786 25.9861C 62.8982 28.2159 62.2393 30.4837 61.7044 32.7802L 55.811 32.7802L 59.8296 17.1119C 60.0501 16.3542 60.1971 15.5784 60.2686 14.7943C 60.2883 14.4491 60.2076 14.1053 60.0355 13.8022C 59.8867 13.5679 59.6657 13.3846 59.4034 13.2783C 58.8608 13.1319 58.297 13.073 57.7346 13.1036L 57.9531 12.4172L 65.3095 10.8593L 66.7706 10.8593L 66.7634 10.882ZM 87.6115 10.882L 84.496 21.0435C 85.9015 18.861 87.4294 16.7543 89.0727 14.7331C 90.0546 13.516 91.2357 12.4623 92.5693 11.6138C 93.4105 11.1451 94.3621 10.8931 95.3328 10.882C 95.7628 10.844 96.196 10.908 96.5948 11.0684C 96.9935 11.2288 97.3457 11.4808 97.6211 11.8025C 98.082 12.3863 98.3309 13.1009 98.3291 13.8355C 98.2587 14.9917 98.0378 16.1348 97.6717 17.2377L 96.5736 21.0435C 97.9686 18.8661 99.4899 16.7669 101.13 14.7558C 102.176 13.4756 103.436 12.3729 104.857 11.4933C 105.565 11.0904 106.372 10.8787 107.194 10.8803C 107.593 10.87 107.991 10.9392 108.362 11.0834C 108.733 11.2275 109.069 11.4437 109.35 11.7186C 109.64 12.0073 109.865 12.3498 110.014 12.7254C 110.162 13.101 110.23 13.5018 110.213 13.9036C 110.158 15.2374 109.915 16.5577 109.491 17.8281L 106.782 26.641C 106.485 27.4609 106.281 28.3095 106.173 29.1718C 106.177 29.3039 106.234 29.4292 106.332 29.5211C 106.374 29.5734 106.427 29.6162 106.488 29.6464C 106.549 29.6766 106.616 29.6935 106.684 29.6958C 106.856 29.697 107.021 29.6344 107.147 29.5211C 107.854 28.9345 108.476 28.259 108.998 27.5126C 109.144 27.324 109.363 27.0329 109.655 26.6393L 110.484 27.1633C 109.613 28.8988 108.353 30.4246 106.794 31.6292C 105.742 32.4686 104.441 32.9644 103.079 33.0456C 102.209 33.0872 101.354 32.804 100.693 32.2544C 100.412 32.0275 100.186 31.7439 100.03 31.4236C 99.8738 31.1032 99.792 30.7538 99.7902 30.3997C 99.8582 29.3549 100.063 28.3225 100.399 27.3274L 103.151 18.111C 103.416 17.3341 103.603 16.5346 103.711 15.7235C 103.708 15.662 103.69 15.6019 103.661 15.5471C 103.632 15.4924 103.591 15.4442 103.542 15.4056C 103.453 15.3136 103.33 15.2585 103.2 15.2519C 102.981 15.2536 102.764 15.3019 102.566 15.3933C 102.035 15.7351 101.556 16.1466 101.141 16.6159C 100.137 17.7391 99.2134 18.9278 98.3779 20.1736C 97.4435 21.4469 96.6091 22.7862 95.8818 24.1802C 95.3254 25.3888 94.8647 26.6365 94.5037 27.9126L 93.0191 32.7819L 86.8566 32.7819L 91.4116 17.3494C 91.5996 16.79 91.7208 16.2116 91.7729 15.6256C 91.7709 15.5662 91.7559 15.5079 91.7288 15.4546C 91.7017 15.4013 91.6631 15.3542 91.6157 15.3165C 91.5288 15.2305 91.4113 15.1799 91.2871 15.175C 90.0937 15.6007 89.0876 16.4096 88.437 17.4665C 86.2892 20.0918 84.4738 22.9561 83.0294 25.9983L 81.0571 32.7819L 74.8458 32.7819L 79.4262 17.587C 79.7876 16.5544 80.0164 15.4827 80.1071 14.3961C 80.1132 14.1657 80.0449 13.9394 79.912 13.7481C 79.7523 13.5459 79.5313 13.3969 79.2799 13.322C 78.7302 13.1914 78.1636 13.1396 77.5983 13.1682L 77.8422 12.2706L 86.1503 10.8732L 87.6115 10.8732L 87.6115 10.882ZM 120.953 23.9269C 120.824 24.7638 120.751 25.6081 120.736 26.4542C 120.711 26.9715 120.793 27.4886 120.976 27.9754C 121.159 28.4622 121.439 28.9091 121.802 29.2906C 122.171 29.6501 122.614 29.9306 123.102 30.1139C 123.591 30.2971 124.114 30.379 124.637 30.3543C 125.824 30.3433 126.992 30.0684 128.051 29.5508C 129.512 28.8 130.855 27.8534 132.042 26.7389L 132.765 27.3764C 131.269 29.2562 129.418 30.8445 127.31 32.0571C 125.507 32.9955 123.488 33.4763 121.44 33.4543C 120.416 33.5691 119.379 33.4588 118.405 33.1316C 117.431 32.8044 116.546 32.2687 115.816 31.5646C 114.786 30.3291 114.235 28.7848 114.257 27.1982C 114.302 24.4599 115.106 21.7834 116.584 19.4471C 118.111 16.8842 120.293 14.7437 122.921 13.2311C 125.325 11.748 128.107 10.9385 130.959 10.8925C 132.081 10.8128 133.192 11.1507 134.065 11.8373C 134.404 12.141 134.673 12.5106 134.853 12.9218C 135.034 13.333 135.122 13.7765 135.113 14.2232C 135.101 15.4132 134.744 16.5761 134.083 17.58C 133.187 19.0144 131.972 20.2376 130.525 21.1604C 129.045 22.088 127.424 22.7858 125.721 23.2283C 124.158 23.5997 122.563 23.8335 120.956 23.9269L 120.953 23.9269ZM 121.169 22.7044C 122.312 22.575 123.43 22.2928 124.493 21.866C 125.372 21.4521 126.158 20.8739 126.805 20.1649C 127.623 19.2903 128.288 18.2922 128.773 17.2098C 129.295 16.166 129.578 15.0259 129.604 13.8669C 129.616 13.6766 129.589 13.4858 129.524 13.3059C 129.459 13.1259 129.357 12.9603 129.225 12.8189C 129.101 12.6953 128.952 12.5978 128.787 12.5326C 128.622 12.4674 128.445 12.4358 128.268 12.4399C 127.74 12.5179 127.234 12.6986 126.781 12.9712C 126.327 13.2438 125.936 13.6027 125.631 14.0258C 123.515 16.5716 121.995 19.5297 121.173 22.6974L 121.169 22.7044ZM 148.623 10.889L 145.606 21.0189C 146.988 18.9027 148.508 16.8743 150.158 14.9462C 151.25 13.6849 152.542 12.5996 153.987 11.7308C 154.902 11.207 155.94 10.915 157.003 10.882C 157.41 10.8765 157.814 10.9549 158.188 11.1118C 158.561 11.2687 158.896 11.5005 159.17 11.7919C 159.785 12.4362 160.109 13.2899 160.073 14.1655C 160.036 15.2594 159.835 16.3424 159.477 17.3809L 156.371 27.4724C 156.172 28.0308 156.039 28.609 155.974 29.1963C 155.98 29.354 156.044 29.5045 156.154 29.6206C 156.201 29.6756 156.258 29.7208 156.324 29.7536C 156.389 29.7863 156.46 29.8058 156.533 29.811C 156.725 29.8028 156.908 29.7361 157.057 29.6206C 157.719 29.0546 158.296 28.4027 158.773 27.6837C 158.918 27.4636 159.152 27.133 159.477 26.6917L 160.417 27.2349C 158.033 31.1262 155.522 33.0718 152.885 33.0718C 152.026 33.1204 151.179 32.8499 150.519 32.3156C 150.246 32.0776 150.028 31.7854 149.882 31.4591C 149.735 31.1327 149.663 30.7798 149.67 30.4241C 149.736 29.4209 149.93 28.4295 150.248 27.4724L 153.3 17.3809C 153.474 16.9084 153.578 16.4145 153.608 15.9138C 153.607 15.8266 153.587 15.7404 153.55 15.661C 153.512 15.5816 153.458 15.5106 153.391 15.4527C 153.324 15.3885 153.246 15.3378 153.159 15.3036C 153.072 15.2694 152.979 15.2524 152.885 15.2537C 152.01 15.3857 151.214 15.82 150.645 16.4762C 147.95 19.1939 145.751 22.3346 144.143 25.7643L 142.139 32.7837L 135.925 32.7837L 140.495 17.6115C 140.84 16.5767 141.059 15.5063 141.145 14.4223C 141.151 14.1833 141.082 13.9482 140.947 13.7481C 140.787 13.5459 140.566 13.3969 140.314 13.322C 139.771 13.1918 139.211 13.14 138.653 13.1682L 138.924 12.2706L 147.142 10.8732L 148.623 10.8732L 148.623 10.889ZM 204.613 0.0185515L 201.867 10.889L 201.054 10.889C 200.949 9.48918 200.633 8.11175 200.115 6.80036C 199.534 5.4452 198.593 4.26246 197.388 3.37188C 196.336 2.59157 195.048 2.16805 193.722 2.16676C 193.097 2.16695 192.48 2.29216 191.908 2.53443C 191.336 2.7767 190.822 3.13083 190.398 3.57453C 189.954 3.98596 189.599 4.47901 189.354 5.02483C 189.109 5.57064 188.979 6.15827 188.972 6.75324C 188.99 7.96325 189.332 9.14798 189.965 10.1922C 191.294 12.0696 192.859 13.7797 194.625 15.2833C 196.201 16.621 197.538 18.2021 198.58 19.9623C 199.263 21.2822 199.61 22.741 199.592 24.2168C 199.603 25.8982 199.113 27.5472 198.183 28.9675C 197.191 30.4577 195.764 31.6296 194.083 32.3348C 192.161 33.1559 190.078 33.5629 187.978 33.5276C 186.205 33.4855 184.439 33.2839 182.704 32.9251C 181.313 32.6194 179.901 32.4179 178.478 32.3225C 177.973 32.3158 177.47 32.4 176.997 32.5706C 176.415 32.8215 175.869 33.1431 175.371 33.5276L 174.414 33.5276L 177.358 21.3019L 178.279 21.3019C 178.43 23.1829 178.887 25.0291 179.634 26.7721C 180.233 28.1913 181.243 29.4137 182.542 30.2931C 183.824 31.1372 185.344 31.5788 186.895 31.5576C 187.639 31.5763 188.38 31.4488 189.072 31.1829C 189.764 30.9169 190.394 30.5179 190.922 30.0101C 191.432 29.5433 191.837 28.9808 192.113 28.357C 192.39 27.7332 192.531 27.0612 192.53 26.3825C 192.525 25.1936 192.214 24.0245 191.627 22.9803C 190.448 21.233 189.046 19.6369 187.454 18.2297C 185.655 16.6159 184.137 14.7322 182.957 12.6512C 182.359 11.4414 182.05 10.1167 182.054 8.77567C 182.052 7.60612 182.311 6.45003 182.813 5.38588C 183.315 4.32173 184.048 3.37445 184.962 2.60862C 187.04 0.824866 189.754 -0.10712 192.53 0.00981027C 194.423 0.0836821 196.299 0.392996 198.11 0.930198C 199.037 1.2173 199.994 1.40016 200.964 1.47514C 201.405 1.48013 201.839 1.37807 202.229 1.17826C 202.736 0.867614 203.183 0.471939 203.547 0.00981027L 204.613 0.00981027L 204.613 0.0185515ZM 217.544 5.12023L 215.594 11.5509L 218.791 11.5509L 217.942 14.2686L 214.799 14.2686L 210.735 27.9755C 210.511 28.6002 210.377 29.252 210.338 29.9123C 210.335 30.1105 210.413 30.3018 210.555 30.4451C 210.615 30.5136 210.69 30.5689 210.774 30.6074C 210.858 30.646 210.949 30.6668 211.042 30.6686C 211.356 30.654 211.655 30.5377 211.891 30.3385C 212.907 29.5078 213.789 28.5361 214.51 27.4549L 215.359 27.9789C 214.468 29.6195 213.202 31.0419 211.656 32.1375C 210.5 32.9558 209.115 33.4166 207.683 33.4595C 206.752 33.5153 205.834 33.224 205.118 32.6456C 204.819 32.3858 204.581 32.0662 204.422 31.7088C 204.263 31.3515 204.186 30.9649 204.197 30.576C 204.248 29.3813 204.461 28.1982 204.829 27.0568L 208.676 14.2721L 205.371 14.2721L 205.859 12.5255C 207.723 11.8911 209.491 11.017 211.115 9.92663C 213.01 8.51064 214.741 6.90157 216.28 5.12716L 217.544 5.12716L 217.544 5.12023ZM 224.913 23.9339C 224.771 24.7696 224.692 25.6143 224.679 26.4612C 224.654 26.9786 224.736 27.4955 224.918 27.9823C 225.101 28.4691 225.382 28.9161 225.744 29.2975C 226.115 29.6556 226.558 29.9352 227.046 30.1183C 227.534 30.3015 228.057 30.3842 228.58 30.3612C 229.772 30.3483 230.945 30.0737 232.012 29.5578C 233.464 28.8018 234.801 27.8555 235.985 26.7458L 236.726 27.3833C 235.219 29.2601 233.363 30.8477 231.253 32.0641C 229.45 33.0026 227.43 33.4833 225.383 33.4613C 224.36 33.5771 223.323 33.4672 222.35 33.1399C 221.377 32.8126 220.494 32.2764 219.766 31.5715C 218.734 30.3374 218.185 28.7918 218.213 27.2052C 218.26 24.4691 219.058 21.7944 220.525 19.454C 222.054 16.8926 224.237 14.7526 226.864 13.2381C 229.274 11.7523 232.062 10.9427 234.919 10.8995C 236.036 10.8224 237.14 11.1604 238.008 11.8444C 238.35 12.1455 238.621 12.5147 238.801 12.9265C 238.982 13.3383 239.069 13.783 239.055 14.2302C 239.044 15.4202 238.687 16.5832 238.026 17.587C 237.135 19.0253 235.919 20.2495 234.468 21.1674C 232.994 22.0949 231.379 22.7926 229.682 23.2353C 228.118 23.6015 226.523 23.8329 224.917 23.9269L 224.913 23.9339ZM 225.13 22.7113C 226.272 22.5796 227.39 22.2976 228.454 21.873C 229.327 21.4501 230.111 20.8732 230.765 20.1719C 231.584 19.3009 232.244 18.3016 232.716 17.2167C 233.238 16.1729 233.521 15.0328 233.547 13.8738C 233.559 13.6835 233.532 13.4929 233.466 13.3129C 233.401 13.1329 233.3 12.9674 233.167 12.8259C 233.045 12.7011 232.896 12.6027 232.731 12.5374C 232.566 12.4721 232.388 12.4412 232.21 12.4469C 231.683 12.5248 231.177 12.7057 230.724 12.9783C 230.27 13.2509 229.879 13.6096 229.573 14.0328C 227.465 16.578 225.951 19.5336 225.134 22.6974L 225.13 22.7113ZM 252.312 14.3279L 249.459 25.2455C 248.586 29.1063 247.277 32.8628 245.558 36.4479C 244.535 38.4877 243.009 40.2531 241.115 41.588C 239.391 42.7055 237.355 43.2869 235.281 43.2542C 234.203 43.3358 233.128 43.0652 232.228 42.4857C 231.931 42.2788 231.688 42.0075 231.519 41.6937C 231.35 41.3798 231.258 41.0319 231.253 40.678C 231.253 40.3577 231.326 40.0415 231.467 39.7515C 231.607 39.4615 231.812 39.2048 232.066 38.9995C 232.651 38.5121 233.407 38.2586 234.179 38.2905C 234.482 38.2687 234.787 38.3055 235.075 38.3987C 235.364 38.492 235.63 38.6398 235.859 38.8337C 236.053 39.0082 236.206 39.2207 236.309 39.4571C 236.412 39.6935 236.462 39.9483 236.455 40.2047C 236.472 40.4068 236.447 40.6103 236.382 40.8031C 236.317 40.9959 236.212 41.1742 236.075 41.3277C 235.915 41.4576 235.791 41.6239 235.714 41.8116L 235.841 41.9862C 235.936 42.0643 236.058 42.1059 236.184 42.1032C 236.643 42.1139 237.09 41.9532 237.43 41.6543C 238.282 40.9182 238.939 39.9944 239.344 38.9612C 239.633 38.2369 240.193 36.3227 241.024 33.2185L 245.991 14.3367L 242.614 14.3367L 243.408 11.5719C 244.319 11.6474 245.234 11.4921 246.063 11.1213C 246.826 10.5692 247.429 9.83745 247.815 8.9958C 249.159 6.33215 251.088 3.98464 253.468 2.11783C 255.388 0.751738 257.713 0.0227687 260.097 0.0395518C 261.299 -0.0600401 262.5 0.248763 263.492 0.912822C 263.836 1.18855 264.111 1.53615 264.295 1.92947C 264.48 2.32279 264.57 2.75152 264.558 3.1833C 264.597 3.89727 264.344 4.59739 263.854 5.13239C 263.63 5.36505 263.359 5.54962 263.057 5.67392C 262.755 5.79821 262.43 5.85949 262.102 5.85375C 261.807 5.86407 261.512 5.81709 261.236 5.7157C 260.96 5.61432 260.708 5.46055 260.494 5.2634C 260.29 5.08444 260.128 4.86524 260.019 4.6206C 259.91 4.37595 259.857 4.11153 259.862 3.84519C 259.875 3.40007 260.012 2.96668 260.259 2.59125C 260.457 2.32325 260.593 2.01693 260.657 1.69346C 260.661 1.61421 260.647 1.53508 260.615 1.46171C 260.584 1.38833 260.537 1.32256 260.476 1.26908C 260.413 1.21306 260.339 1.16966 260.258 1.14148C 260.178 1.1133 260.092 1.10091 260.007 1.10492C 259.415 1.16703 258.845 1.35354 258.337 1.65135C 257.828 1.94916 257.393 2.35103 257.063 2.82875C 255.049 5.40708 253.677 8.39943 253.053 11.5736L 256.593 11.5736L 255.744 14.3384L 252.312 14.3384L 252.312 14.3279ZM 268.008 14.3279L 265.172 25.2455C 264.299 29.1063 262.991 32.8628 261.271 36.4479C 260.248 38.4877 258.722 40.2531 256.828 41.588C 255.104 42.7055 253.069 43.2869 250.994 43.2542C 249.916 43.3385 248.84 43.0676 247.941 42.4857C 247.644 42.2788 247.402 42.0075 247.232 41.6937C 247.063 41.3798 246.972 41.0319 246.966 40.678C 246.967 40.3577 247.039 40.0415 247.18 39.7515C 247.32 39.4615 247.525 39.2048 247.779 38.9995C 248.363 38.5094 249.12 38.2556 249.892 38.2905C 250.196 38.2687 250.5 38.3055 250.788 38.3987C 251.077 38.492 251.343 38.6398 251.572 38.8337C 251.764 39.0091 251.915 39.2222 252.014 39.4587C 252.114 39.6951 252.16 39.9495 252.15 40.2047C 252.17 40.4057 252.148 40.6084 252.086 40.8012C 252.024 40.994 251.923 41.173 251.789 41.3277C 251.629 41.4576 251.505 41.6239 251.427 41.8116L 251.554 41.9862C 251.648 42.067 251.771 42.109 251.897 42.1032C 252.352 42.117 252.793 41.9555 253.125 41.6543C 253.988 40.9239 254.652 39.9989 255.058 38.9612C 255.347 38.2369 255.907 36.3227 256.737 33.2185L 261.704 14.3367L 258.327 14.3367L 259.122 11.5719C 260.032 11.6474 260.947 11.4921 261.777 11.1213C 262.539 10.5692 263.142 9.83745 263.528 8.9958C 264.866 6.32852 266.796 3.97984 269.182 2.11783C 271.101 0.751738 273.427 0.0227687 275.81 0.0395518C 277.013 -0.0600401 278.213 0.248763 279.206 0.912822C 279.55 1.18855 279.824 1.53615 280.009 1.92947C 280.193 2.32279 280.283 2.75152 280.271 3.1833C 280.31 3.89727 280.057 4.59739 279.567 5.13239C 279.34 5.36535 279.066 5.5499 278.761 5.67413C 278.456 5.79835 278.128 5.85954 277.797 5.85375C 277.502 5.86251 277.208 5.81487 276.932 5.71357C 276.657 5.61227 276.404 5.45927 276.189 5.2634C 275.988 5.08216 275.828 4.86258 275.72 4.61846C 275.611 4.37435 275.555 4.111 275.557 3.84519C 275.577 3.39871 275.72 2.96564 275.973 2.59125C 276.163 2.31893 276.297 2.01426 276.37 1.69346C 276.37 1.53449 276.305 1.38197 276.189 1.26908C 276.055 1.15554 275.88 1.09672 275.702 1.10492C 275.111 1.16899 274.542 1.35627 274.034 1.65391C 273.526 1.95154 273.09 2.35243 272.758 2.82875C 270.758 5.41292 269.393 8.40342 268.766 11.5736L 272.306 11.5736L 271.439 14.3384L 268.008 14.3384L 268.008 14.3279ZM 279.368 23.9462C 279.239 24.7831 279.167 25.6273 279.151 26.4734C 279.124 26.9896 279.202 27.506 279.382 27.9928C 279.562 28.4797 279.84 28.9273 280.199 29.3098C 280.569 29.6679 281.013 29.9475 281.501 30.1306C 281.989 30.3137 282.512 30.3965 283.035 30.3734C 284.227 30.3606 285.4 30.0858 286.466 29.57C 287.921 28.8182 289.259 27.8716 290.44 26.7581L 291.18 27.3956C 289.68 29.2714 287.83 30.859 285.726 32.0763C 283.922 33.0126 281.903 33.4932 279.856 33.4735C 278.83 33.5873 277.791 33.4767 276.816 33.1495C 275.84 32.8224 274.953 32.2873 274.221 31.5838C 273.197 30.3455 272.648 28.8027 272.668 27.2174C 272.713 24.4787 273.518 21.802 274.997 19.4663C 276.52 16.9057 278.697 14.7655 281.319 13.2503C 283.729 11.7669 286.517 10.9575 289.374 10.9117C 290.491 10.8289 291.598 11.1675 292.463 11.8566C 292.805 12.1578 293.076 12.5268 293.256 12.9386C 293.437 13.3504 293.524 13.7952 293.51 14.2423C 293.496 15.4296 293.147 16.5905 292.499 17.5992C 291.598 19.0298 290.383 20.2519 288.941 21.1796C 287.461 22.1072 285.84 22.8049 284.136 23.2475C 282.572 23.6096 280.978 23.8369 279.372 23.9269L 279.368 23.9462ZM 279.585 22.7236C 280.727 22.5919 281.845 22.3098 282.908 21.8853C 283.785 21.4668 284.569 20.8893 285.22 20.1841C 286.039 19.3096 286.704 18.3113 287.189 17.229C 287.697 16.1814 287.974 15.0429 288.002 13.8861C 288.017 13.697 287.992 13.5068 287.93 13.3269C 287.868 13.1469 287.77 12.9807 287.64 12.8381C 287.514 12.7129 287.362 12.6145 287.194 12.5492C 287.026 12.484 286.846 12.4533 286.665 12.4591C 286.14 12.5378 285.637 12.719 285.187 12.9916C 284.737 13.2642 284.348 13.6227 284.046 14.045C 281.933 16.5851 280.413 19.5365 279.589 22.6974L 279.585 22.7236ZM 307.038 10.9082L 304.004 21.0381C 305.396 18.9246 306.922 16.8965 308.573 14.9654C 309.66 13.7053 310.946 12.62 312.384 11.75C 313.306 11.2257 314.35 10.9338 315.419 10.9013C 315.825 10.8992 316.228 10.979 316.601 11.1357C 316.974 11.2924 317.31 11.5224 317.586 11.8112C 318.195 12.4577 318.513 13.3114 318.471 14.1848C 318.441 15.278 318.246 16.3611 317.893 17.4001L 314.768 27.4916C 314.581 28.0521 314.454 28.6298 314.389 29.2154C 314.388 29.2943 314.403 29.3726 314.434 29.4456C 314.465 29.5186 314.511 29.5847 314.57 29.6399C 314.616 29.6949 314.674 29.74 314.739 29.7727C 314.804 29.8055 314.876 29.825 314.949 29.8302C 315.134 29.8212 315.312 29.7545 315.455 29.6399C 316.127 29.0795 316.711 28.4269 317.189 27.703C 317.333 27.4829 317.568 27.1523 317.893 26.711L 318.814 27.2541C 316.43 31.1454 313.926 33.091 311.301 33.091C 310.441 33.1427 309.593 32.8718 308.935 32.3348C 308.658 32.0993 308.438 31.8077 308.292 31.4807C 308.145 31.1537 308.075 30.7995 308.086 30.4433C 308.143 29.439 308.337 28.4465 308.664 27.4916L 311.716 17.4001C 311.881 16.9252 311.984 16.4325 312.023 15.933C 312.022 15.8458 312.003 15.7597 311.965 15.6803C 311.928 15.6009 311.874 15.5299 311.806 15.472C 311.671 15.345 311.489 15.2736 311.301 15.2729C 310.423 15.3974 309.625 15.8332 309.061 16.4955C 306.36 19.2087 304.16 22.3504 302.559 25.7835L 300.554 32.8029L 294.341 32.8029L 298.893 17.6306C 299.25 16.5983 299.475 15.5271 299.561 14.4415C 299.567 14.2025 299.497 13.9674 299.362 13.7673C 299.202 13.5651 298.981 13.4161 298.73 13.3411C 298.187 13.211 297.627 13.1592 297.068 13.1874L 297.339 12.2898L 305.539 10.8925L 307.038 10.8925L 307.038 10.9082ZM 340 10.9082L 338.934 18.2087L 338.031 18.2087C 338.005 16.5616 337.371 14.9777 336.243 13.7428C 335.823 13.2558 335.303 12.8593 334.715 12.5786C 334.127 12.298 333.485 12.1394 332.83 12.1133C 332.148 12.0869 331.482 12.3152 330.969 12.7508C 330.74 12.9402 330.556 13.176 330.431 13.4416C 330.306 13.7072 330.244 13.996 330.247 14.2878C 330.247 14.7754 330.351 15.2578 330.554 15.7043C 330.938 16.3659 331.418 16.9705 331.981 17.4996C 333.729 19.1814 335.291 21.0353 336.641 23.031C 337.194 24.0259 337.48 25.1393 337.471 26.269C 337.473 27.5086 337.136 28.7267 336.496 29.8006C 335.815 30.945 334.805 31.8734 333.588 32.4727C 332.354 33.128 330.969 33.4728 329.561 33.4753C 328.379 33.4394 327.208 33.2568 326.075 32.9321C 325.413 32.724 324.728 32.5972 324.034 32.5548C 323.705 32.5377 323.377 32.5977 323.077 32.7295C 322.776 32.9264 322.518 33.1786 322.318 33.4718L 321.433 33.4718L 322.625 25.6019L 323.402 25.6019C 323.769 27.0153 324.303 28.3835 324.991 29.68C 325.476 30.4765 326.159 31.143 326.978 31.6187C 327.69 32.0639 328.514 32.3127 329.362 32.3383C 329.77 32.3521 330.176 32.2872 330.557 32.1475C 330.939 32.0077 331.288 31.796 331.583 31.5244C 331.86 31.2753 332.08 30.9732 332.229 30.6373C 332.379 30.3014 332.454 29.9391 332.45 29.5735C 332.451 28.823 332.259 28.0842 331.891 27.4235C 331.133 26.2568 330.249 25.1714 329.253 24.1854C 327.82 22.7875 326.559 21.2331 325.497 19.5536C 325.058 18.7199 324.841 17.7937 324.865 16.8586C 324.845 16.0579 325.007 15.2627 325.337 14.5283C 325.668 13.7938 326.16 13.1377 326.779 12.6058C 328.275 11.3937 330.196 10.7845 332.143 10.9047C 333.394 10.9389 334.637 11.1149 335.846 11.4287C 336.417 11.5807 337.005 11.668 337.598 11.689C 337.9 11.6925 338.199 11.623 338.467 11.487C 338.735 11.3511 338.964 11.1528 339.133 10.91L 340 10.91L 340 10.9082Z"/>
  </defs>
  <title>Logo</title>
  <desc>Created using Figma</desc>
  <g>
    <g id="Canvas" transform="matrix(1.352424, 0, 0, 1.352424, 14542.207031, -166.58432)" style="opacity: 0.9;">
      <g id="Logo" transform="matrix(1, 0, 0, 1, -65.645554, -14.491483)">
        <path fill-rule="evenodd" d="M -10459.669 318.814 L -10460.505 322.309 L -10460.829 322.309 C -10460.803 321.539 -10461.059 320.785 -10461.552 320.181 C -10461.771 319.949 -10462.04 319.766 -10462.34 319.645 C -10462.64 319.524 -10462.963 319.467 -10463.287 319.479 C -10464.149 319.516 -10464.967 319.858 -10465.586 320.438 C -10466.467 321.249 -10467.132 322.253 -10467.525 323.366 C -10467.942 324.369 -10468.16 325.439 -10468.168 326.52 C -10468.224 327.291 -10467.971 328.054 -10467.463 328.65 C -10467.213 328.899 -10466.911 329.093 -10466.577 329.219 C -10466.243 329.346 -10465.886 329.402 -10465.527 329.384 C -10464.896 329.391 -10464.273 329.247 -10463.714 328.964 C -10463.079 328.61 -10462.518 328.145 -10462.059 327.593 L -10461.658 327.593 C -10462.187 328.438 -10462.902 329.161 -10463.752 329.71 C -10464.541 330.136 -10465.435 330.346 -10466.339 330.318 C -10466.944 330.344 -10467.548 330.251 -10468.115 330.044 C -10468.682 329.837 -10469.199 329.52 -10469.635 329.114 C -10470.054 328.7 -10470.381 328.208 -10470.597 327.667 C -10470.812 327.127 -10470.91 326.55 -10470.885 325.972 C -10470.882 324.75 -10470.539 323.552 -10469.89 322.504 C -10469.192 321.414 -10468.227 320.507 -10467.079 319.864 C -10465.932 319.221 -10464.638 318.862 -10463.313 318.818 C -10462.72 318.838 -10462.132 318.936 -10461.566 319.11 C -10461.325 319.186 -10461.075 319.235 -10460.822 319.256 C -10460.658 319.243 -10460.499 319.198 -10460.353 319.122 C -10460.208 319.047 -10460.081 318.944 -10459.978 318.818 L -10459.668 318.818 L -10459.669 318.814 Z M -10452.389 322.658 L -10454.011 328.053 L -10454.178 328.712 C -10454.192 328.771 -10454.2 328.831 -10454.203 328.892 C -10454.204 328.955 -10454.178 329.016 -10454.132 329.062 C -10454.115 329.083 -10454.092 329.1 -10454.067 329.113 C -10454.042 329.125 -10454.014 329.132 -10453.986 329.134 C -10453.8 329.101 -10453.63 329.01 -10453.501 328.876 C -10453.282 328.641 -10453.081 328.392 -10452.899 328.129 L -10452.606 328.275 C -10452.91 328.869 -10453.342 329.393 -10453.873 329.812 C -10454.289 330.121 -10454.798 330.29 -10455.323 330.291 C -10455.455 330.3 -10455.587 330.283 -10455.711 330.242 C -10455.836 330.201 -10455.951 330.136 -10456.05 330.051 C -10456.133 329.973 -10456.198 329.878 -10456.241 329.774 C -10456.284 329.67 -10456.304 329.559 -10456.301 329.447 C -10456.261 329.046 -10456.171 328.652 -10456.033 328.272 L -10455.833 327.613 C -10456.304 328.479 -10456.936 329.254 -10457.697 329.9 C -10458.008 330.147 -10458.397 330.284 -10458.8 330.289 C -10459.027 330.302 -10459.253 330.251 -10459.45 330.142 C -10459.647 330.034 -10459.808 329.872 -10459.911 329.677 C -10460.144 329.251 -10460.262 328.775 -10460.254 328.294 C -10460.214 327.379 -10459.969 326.484 -10459.535 325.671 C -10459.106 324.746 -10458.459 323.931 -10457.646 323.29 C -10457.15 322.85 -10456.513 322.587 -10455.841 322.544 C -10455.704 322.538 -10455.567 322.558 -10455.438 322.603 C -10455.309 322.648 -10455.19 322.718 -10455.089 322.808 C -10454.854 323.08 -10454.709 323.414 -10454.672 323.766 L -10454.37 322.769 L -10452.389 322.658 Z M -10455.065 324.199 C -10455.038 323.87 -10455.111 323.541 -10455.274 323.25 C -10455.319 323.186 -10455.38 323.134 -10455.452 323.098 C -10455.524 323.063 -10455.603 323.045 -10455.683 323.048 C -10455.887 323.061 -10456.078 323.147 -10456.218 323.291 C -10456.755 323.888 -10457.165 324.58 -10457.426 325.329 C -10457.814 326.167 -10458.034 327.068 -10458.074 327.985 C -10458.093 328.201 -10458.041 328.418 -10457.928 328.606 C -10457.894 328.66 -10457.847 328.706 -10457.791 328.739 C -10457.735 328.772 -10457.672 328.792 -10457.606 328.796 C -10457.456 328.783 -10457.31 328.738 -10457.179 328.666 C -10457.048 328.593 -10456.934 328.495 -10456.845 328.377 C -10456.448 327.932 -10456.115 327.438 -10455.853 326.908 C -10455.38 326.075 -10455.11 325.149 -10455.065 324.199 Z M -10447.978 322.545 L -10449.239 327.1 C -10448.203 324.878 -10447.423 323.51 -10446.899 322.996 C -10446.778 322.86 -10446.63 322.75 -10446.463 322.672 C -10446.296 322.594 -10446.115 322.55 -10445.929 322.543 C -10445.822 322.539 -10445.714 322.56 -10445.616 322.602 C -10445.517 322.645 -10445.43 322.709 -10445.361 322.789 C -10445.204 322.991 -10445.127 323.239 -10445.144 323.491 C -10445.128 323.961 -10445.265 324.424 -10445.537 324.813 C -10445.593 324.91 -10445.674 324.991 -10445.772 325.051 C -10445.869 325.11 -10445.98 325.145 -10446.095 325.153 C -10446.199 325.156 -10446.303 325.129 -10446.391 325.076 C -10446.481 325.022 -10446.552 324.946 -10446.596 324.854 C -10446.657 324.727 -10446.736 324.608 -10446.83 324.5 C -10446.869 324.467 -10446.92 324.449 -10446.972 324.448 C -10447.034 324.45 -10447.094 324.466 -10447.147 324.496 C -10447.336 324.625 -10447.499 324.786 -10447.628 324.971 C -10447.912 325.368 -10448.157 325.789 -10448.359 326.23 C -10448.649 326.82 -10448.874 327.319 -10449.036 327.728 C -10449.304 328.493 -10449.53 329.271 -10449.714 330.06 L -10451.736 330.06 L -10450.357 324.683 C -10450.281 324.423 -10450.231 324.156 -10450.206 323.888 C -10450.2 323.769 -10450.227 323.651 -10450.286 323.547 C -10450.337 323.466 -10450.413 323.404 -10450.503 323.367 C -10450.689 323.317 -10450.883 323.297 -10451.076 323.307 L -10451.001 323.072 L -10448.477 322.537 L -10447.975 322.537 L -10447.978 322.545 Z M -10440.823 322.545 L -10441.892 326.032 C -10441.41 325.283 -10440.886 324.56 -10440.322 323.866 C -10439.985 323.449 -10439.58 323.087 -10439.122 322.796 C -10438.833 322.635 -10438.506 322.549 -10438.173 322.545 C -10438.025 322.532 -10437.877 322.554 -10437.74 322.609 C -10437.603 322.664 -10437.483 322.75 -10437.388 322.861 C -10437.23 323.061 -10437.144 323.306 -10437.145 323.558 C -10437.169 323.955 -10437.245 324.347 -10437.371 324.726 L -10437.748 326.032 C -10437.269 325.285 -10436.747 324.564 -10436.184 323.874 C -10435.825 323.435 -10435.392 323.056 -10434.905 322.755 C -10434.662 322.616 -10434.385 322.544 -10434.103 322.544 C -10433.966 322.541 -10433.829 322.564 -10433.702 322.614 C -10433.575 322.663 -10433.459 322.737 -10433.363 322.832 C -10433.263 322.931 -10433.186 323.048 -10433.135 323.177 C -10433.084 323.306 -10433.061 323.444 -10433.067 323.582 C -10433.086 324.04 -10433.169 324.492 -10433.314 324.929 L -10434.244 327.953 C -10434.346 328.234 -10434.416 328.525 -10434.453 328.821 C -10434.452 328.867 -10434.432 328.91 -10434.399 328.941 C -10434.384 328.959 -10434.366 328.974 -10434.345 328.984 C -10434.324 328.995 -10434.301 329 -10434.278 329.001 C -10434.219 329.002 -10434.162 328.98 -10434.119 328.941 C -10433.876 328.74 -10433.663 328.508 -10433.484 328.252 C -10433.434 328.187 -10433.358 328.087 -10433.258 327.952 L -10432.974 328.132 C -10433.273 328.728 -10433.705 329.251 -10434.24 329.665 C -10434.601 329.953 -10435.048 330.123 -10435.515 330.151 C -10435.814 330.165 -10436.107 330.068 -10436.334 329.879 C -10436.43 329.801 -10436.508 329.704 -10436.561 329.594 C -10436.615 329.484 -10436.643 329.364 -10436.644 329.243 C -10436.62 328.884 -10436.55 328.53 -10436.435 328.188 L -10435.49 325.026 C -10435.399 324.759 -10435.335 324.484 -10435.298 324.206 C -10435.299 324.185 -10435.305 324.164 -10435.315 324.146 C -10435.325 324.127 -10435.339 324.111 -10435.356 324.097 C -10435.387 324.065 -10435.429 324.047 -10435.473 324.044 C -10435.549 324.045 -10435.623 324.061 -10435.691 324.093 C -10435.873 324.21 -10436.038 324.351 -10436.18 324.512 C -10436.525 324.898 -10436.842 325.306 -10437.128 325.733 C -10437.449 326.17 -10437.735 326.63 -10437.985 327.108 C -10438.176 327.523 -10438.334 327.951 -10438.458 328.389 L -10438.967 330.06 L -10441.082 330.06 L -10439.519 324.764 C -10439.455 324.572 -10439.413 324.374 -10439.395 324.173 C -10439.396 324.152 -10439.401 324.132 -10439.41 324.114 C -10439.42 324.096 -10439.433 324.08 -10439.449 324.067 C -10439.479 324.037 -10439.519 324.02 -10439.562 324.018 C -10439.971 324.164 -10440.317 324.442 -10440.54 324.804 C -10441.277 325.705 -10441.9 326.689 -10442.396 327.732 L -10443.072 330.06 L -10445.204 330.06 L -10443.632 324.846 C -10443.508 324.491 -10443.43 324.124 -10443.398 323.751 C -10443.396 323.672 -10443.419 323.594 -10443.465 323.529 C -10443.52 323.459 -10443.596 323.408 -10443.682 323.382 C -10443.871 323.337 -10444.065 323.319 -10444.259 323.33 L -10444.176 323.021 L -10441.324 322.542 L -10440.823 322.542 L -10440.823 322.545 Z M -10429.381 327.021 C -10429.425 327.308 -10429.45 327.599 -10429.455 327.889 C -10429.464 328.066 -10429.436 328.244 -10429.373 328.411 C -10429.31 328.578 -10429.214 328.731 -10429.09 328.862 C -10428.963 328.986 -10428.811 329.082 -10428.644 329.144 C -10428.476 329.208 -10428.296 329.236 -10428.117 329.227 C -10427.709 329.223 -10427.309 329.129 -10426.945 328.951 C -10426.444 328.694 -10425.983 328.369 -10425.576 327.986 L -10425.328 328.205 C -10425.841 328.85 -10426.476 329.395 -10427.2 329.812 C -10427.818 330.133 -10428.511 330.299 -10429.214 330.291 C -10429.565 330.331 -10429.921 330.292 -10430.256 330.18 C -10430.59 330.068 -10430.893 329.884 -10431.144 329.642 C -10431.497 329.219 -10431.686 328.688 -10431.679 328.144 C -10431.664 327.204 -10431.388 326.286 -10430.88 325.484 C -10430.356 324.605 -10429.607 323.87 -10428.706 323.351 C -10427.881 322.842 -10426.926 322.564 -10425.947 322.548 C -10425.562 322.521 -10425.181 322.637 -10424.881 322.873 C -10424.765 322.977 -10424.673 323.104 -10424.611 323.245 C -10424.549 323.386 -10424.519 323.538 -10424.522 323.692 C -10424.526 324.1 -10424.648 324.499 -10424.875 324.843 C -10425.183 325.336 -10425.6 325.755 -10426.096 326.072 C -10426.604 326.391 -10427.16 326.63 -10427.745 326.782 C -10428.281 326.909 -10428.829 326.989 -10429.38 327.021 L -10429.381 327.021 Z M -10429.307 326.602 C -10428.915 326.558 -10428.531 326.461 -10428.166 326.314 C -10427.865 326.172 -10427.595 325.974 -10427.373 325.73 C -10427.092 325.43 -10426.864 325.088 -10426.698 324.716 C -10426.518 324.358 -10426.421 323.967 -10426.412 323.569 C -10426.408 323.504 -10426.417 323.438 -10426.44 323.376 C -10426.462 323.315 -10426.497 323.258 -10426.542 323.209 C -10426.585 323.167 -10426.636 323.134 -10426.693 323.111 C -10426.749 323.089 -10426.81 323.078 -10426.871 323.079 C -10427.052 323.106 -10427.226 323.168 -10427.381 323.262 C -10427.537 323.355 -10427.671 323.478 -10427.776 323.624 C -10428.502 324.497 -10429.024 325.512 -10429.306 326.6 L -10429.307 326.602 Z M -10419.885 322.547 L -10420.921 326.023 C -10420.447 325.297 -10419.925 324.601 -10419.359 323.94 C -10418.984 323.506 -10418.541 323.134 -10418.045 322.836 C -10417.731 322.656 -10417.374 322.556 -10417.01 322.545 C -10416.87 322.543 -10416.731 322.57 -10416.603 322.624 C -10416.475 322.677 -10416.36 322.757 -10416.266 322.857 C -10416.055 323.078 -10415.944 323.371 -10415.956 323.672 C -10415.969 324.047 -10416.038 324.419 -10416.161 324.775 L -10417.227 328.238 C -10417.295 328.43 -10417.341 328.628 -10417.363 328.83 C -10417.361 328.884 -10417.339 328.936 -10417.301 328.975 C -10417.285 328.994 -10417.265 329.01 -10417.243 329.021 C -10417.22 329.032 -10417.196 329.039 -10417.171 329.041 C -10417.105 329.038 -10417.042 329.015 -10416.991 328.975 C -10416.764 328.781 -10416.566 328.557 -10416.402 328.311 C -10416.353 328.235 -10416.272 328.122 -10416.161 327.97 L -10415.838 328.157 C -10416.656 329.492 -10417.518 330.16 -10418.423 330.16 C -10418.718 330.176 -10419.008 330.083 -10419.235 329.9 C -10419.329 329.818 -10419.403 329.718 -10419.453 329.606 C -10419.504 329.494 -10419.529 329.373 -10419.526 329.251 C -10419.504 328.907 -10419.437 328.567 -10419.328 328.238 L -10418.28 324.775 C -10418.221 324.613 -10418.185 324.443 -10418.175 324.272 C -10418.175 324.242 -10418.182 324.212 -10418.195 324.185 C -10418.208 324.157 -10418.226 324.133 -10418.249 324.113 C -10418.272 324.091 -10418.299 324.074 -10418.329 324.062 C -10418.359 324.05 -10418.391 324.045 -10418.423 324.045 C -10418.723 324.09 -10418.996 324.24 -10419.192 324.465 C -10420.116 325.397 -10420.871 326.475 -10421.423 327.652 L -10422.111 330.061 L -10424.243 330.061 L -10422.675 324.854 C -10422.556 324.499 -10422.481 324.132 -10422.452 323.76 C -10422.45 323.678 -10422.473 323.597 -10422.52 323.529 C -10422.575 323.459 -10422.65 323.408 -10422.737 323.382 C -10422.923 323.337 -10423.115 323.32 -10423.307 323.33 L -10423.214 323.021 L -10420.394 322.542 L -10419.885 322.542 L -10419.885 322.547 Z M -10400.671 318.817 L -10401.614 322.547 L -10401.893 322.547 C -10401.929 322.067 -10402.037 321.594 -10402.215 321.144 C -10402.414 320.679 -10402.737 320.273 -10403.151 319.967 C -10403.512 319.7 -10403.954 319.555 -10404.409 319.554 C -10404.623 319.554 -10404.835 319.597 -10405.031 319.68 C -10405.228 319.763 -10405.404 319.885 -10405.549 320.037 C -10405.702 320.178 -10405.824 320.348 -10405.908 320.535 C -10405.992 320.722 -10406.036 320.924 -10406.039 321.128 C -10406.033 321.543 -10405.915 321.95 -10405.698 322.308 C -10405.242 322.952 -10404.705 323.539 -10404.099 324.055 C -10403.558 324.515 -10403.099 325.057 -10402.742 325.661 C -10402.507 326.114 -10402.388 326.615 -10402.394 327.121 C -10402.391 327.698 -10402.559 328.264 -10402.878 328.751 C -10403.218 329.263 -10403.708 329.665 -10404.285 329.907 C -10404.944 330.188 -10405.659 330.328 -10406.38 330.316 C -10406.989 330.302 -10407.595 330.232 -10408.19 330.109 C -10408.667 330.005 -10409.152 329.935 -10409.64 329.903 C -10409.813 329.9 -10409.986 329.929 -10410.148 329.988 C -10410.348 330.074 -10410.536 330.184 -10410.706 330.316 L -10411.035 330.316 L -10410.025 326.12 L -10409.708 326.12 C -10409.657 326.766 -10409.5 327.4 -10409.243 327.998 C -10409.038 328.485 -10408.691 328.904 -10408.246 329.206 C -10407.806 329.496 -10407.284 329.647 -10406.752 329.64 C -10406.496 329.646 -10406.242 329.603 -10406.004 329.511 C -10405.767 329.42 -10405.551 329.283 -10405.37 329.109 C -10405.195 328.949 -10405.056 328.756 -10404.961 328.542 C -10404.866 328.328 -10404.818 328.097 -10404.818 327.864 C -10404.819 327.456 -10404.926 327.055 -10405.128 326.697 C -10405.532 326.097 -10406.013 325.549 -10406.56 325.066 C -10407.177 324.512 -10407.698 323.866 -10408.103 323.152 C -10408.308 322.737 -10408.414 322.282 -10408.413 321.822 C -10408.414 321.421 -10408.325 321.024 -10408.152 320.658 C -10407.98 320.294 -10407.729 319.968 -10407.415 319.706 C -10406.702 319.093 -10405.77 318.774 -10404.818 318.814 C -10404.168 318.839 -10403.524 318.945 -10402.903 319.13 C -10402.585 319.228 -10402.256 319.291 -10401.923 319.317 C -10401.772 319.318 -10401.623 319.284 -10401.489 319.215 C -10401.316 319.108 -10401.162 318.973 -10401.037 318.814 L -10400.671 318.814 L -10400.671 318.817 Z M -10396.234 320.568 L -10396.903 322.774 L -10395.806 322.774 L -10396.097 323.707 L -10397.176 323.707 L -10398.57 328.411 C -10398.647 328.625 -10398.693 328.849 -10398.707 329.076 C -10398.708 329.143 -10398.681 329.209 -10398.632 329.258 C -10398.612 329.282 -10398.586 329.301 -10398.557 329.314 C -10398.528 329.327 -10398.497 329.334 -10398.465 329.335 C -10398.357 329.33 -10398.255 329.29 -10398.174 329.222 C -10397.825 328.936 -10397.522 328.603 -10397.275 328.232 L -10396.984 328.412 C -10397.289 328.975 -10397.724 329.463 -10398.254 329.839 C -10398.651 330.12 -10399.126 330.278 -10399.618 330.293 C -10399.937 330.312 -10400.252 330.212 -10400.498 330.013 C -10400.601 329.924 -10400.682 329.815 -10400.737 329.692 C -10400.791 329.569 -10400.818 329.437 -10400.814 329.303 C -10400.797 328.893 -10400.723 328.487 -10400.597 328.095 L -10399.277 323.708 L -10400.411 323.708 L -10400.244 323.109 C -10399.604 322.891 -10398.997 322.591 -10398.44 322.217 C -10397.79 321.731 -10397.196 321.179 -10396.668 320.57 L -10396.234 320.57 L -10396.234 320.568 Z M -10393.705 327.024 C -10393.754 327.311 -10393.781 327.601 -10393.785 327.891 C -10393.794 328.069 -10393.766 328.246 -10393.703 328.413 C -10393.64 328.58 -10393.544 328.734 -10393.42 328.864 C -10393.292 328.987 -10393.14 329.083 -10392.973 329.146 C -10392.806 329.209 -10392.626 329.238 -10392.447 329.23 C -10392.037 329.225 -10391.635 329.131 -10391.269 328.954 C -10390.771 328.694 -10390.312 328.37 -10389.905 327.989 L -10389.651 328.208 C -10390.168 328.852 -10390.805 329.396 -10391.529 329.814 C -10392.148 330.136 -10392.841 330.301 -10393.544 330.293 C -10393.895 330.333 -10394.251 330.296 -10394.585 330.183 C -10394.918 330.071 -10395.221 329.887 -10395.471 329.645 C -10395.825 329.221 -10396.014 328.691 -10396.004 328.146 C -10395.988 327.208 -10395.714 326.29 -10395.211 325.487 C -10394.686 324.607 -10393.937 323.873 -10393.035 323.354 C -10392.208 322.844 -10391.251 322.565 -10390.271 322.551 C -10389.888 322.524 -10389.509 322.64 -10389.211 322.875 C -10389.094 322.978 -10389.001 323.105 -10388.939 323.246 C -10388.877 323.388 -10388.847 323.541 -10388.852 323.694 C -10388.856 324.102 -10388.978 324.501 -10389.205 324.846 C -10389.511 325.339 -10389.928 325.76 -10390.426 326.075 C -10390.932 326.393 -10391.486 326.632 -10392.068 326.784 C -10392.605 326.91 -10393.152 326.989 -10393.704 327.021 L -10393.705 327.024 Z M -10393.63 326.604 C -10393.238 326.559 -10392.855 326.462 -10392.49 326.317 C -10392.19 326.172 -10391.921 325.974 -10391.697 325.733 C -10391.416 325.434 -10391.189 325.091 -10391.027 324.719 C -10390.848 324.36 -10390.751 323.969 -10390.742 323.571 C -10390.738 323.506 -10390.747 323.441 -10390.77 323.379 C -10390.792 323.317 -10390.827 323.26 -10390.872 323.212 C -10390.914 323.169 -10390.965 323.135 -10391.022 323.113 C -10391.079 323.091 -10391.14 323.08 -10391.201 323.082 C -10391.382 323.108 -10391.555 323.171 -10391.711 323.264 C -10391.867 323.358 -10392.001 323.481 -10392.106 323.626 C -10392.829 324.5 -10393.349 325.514 -10393.629 326.6 L -10393.63 326.604 Z M -10384.302 323.727 L -10385.281 327.474 C -10385.581 328.799 -10386.03 330.088 -10386.62 331.318 C -10386.971 332.018 -10387.495 332.624 -10388.145 333.082 C -10388.736 333.466 -10389.435 333.665 -10390.147 333.654 C -10390.517 333.682 -10390.886 333.589 -10391.195 333.39 C -10391.297 333.319 -10391.38 333.226 -10391.438 333.118 C -10391.496 333.011 -10391.527 332.891 -10391.529 332.77 C -10391.529 332.66 -10391.504 332.551 -10391.456 332.452 C -10391.408 332.352 -10391.337 332.264 -10391.25 332.194 C -10391.049 332.027 -10390.79 331.94 -10390.525 331.951 C -10390.421 331.943 -10390.316 331.956 -10390.218 331.988 C -10390.118 332.02 -10390.027 332.07 -10389.949 332.137 C -10389.882 332.197 -10389.83 332.27 -10389.794 332.351 C -10389.759 332.432 -10389.742 332.52 -10389.744 332.607 C -10389.738 332.677 -10389.747 332.747 -10389.769 332.813 C -10389.791 332.879 -10389.827 332.94 -10389.874 332.993 C -10389.929 333.037 -10389.972 333.094 -10389.998 333.159 L -10389.955 333.219 C -10389.922 333.246 -10389.88 333.26 -10389.837 333.259 C -10389.679 333.263 -10389.526 333.208 -10389.409 333.105 C -10389.117 332.853 -10388.892 332.535 -10388.753 332.181 C -10388.653 331.932 -10388.461 331.275 -10388.176 330.21 L -10386.471 323.73 L -10387.63 323.73 L -10387.358 322.781 C -10387.045 322.808 -10386.731 322.754 -10386.447 322.627 C -10386.185 322.437 -10385.978 322.186 -10385.845 321.897 C -10385.384 320.984 -10384.722 320.178 -10383.906 319.537 C -10383.247 319.068 -10382.449 318.818 -10381.631 318.824 C -10381.218 318.79 -10380.806 318.896 -10380.466 319.124 C -10380.348 319.218 -10380.253 319.338 -10380.19 319.473 C -10380.127 319.607 -10380.096 319.755 -10380.1 319.903 C -10380.087 320.148 -10380.173 320.388 -10380.341 320.572 C -10380.418 320.652 -10380.511 320.715 -10380.615 320.758 C -10380.718 320.8 -10380.83 320.821 -10380.943 320.819 C -10381.044 320.823 -10381.145 320.807 -10381.24 320.772 C -10381.335 320.737 -10381.421 320.684 -10381.495 320.617 C -10381.564 320.555 -10381.62 320.48 -10381.658 320.396 C -10381.695 320.312 -10381.713 320.221 -10381.711 320.13 C -10381.707 319.977 -10381.66 319.828 -10381.575 319.7 C -10381.507 319.608 -10381.46 319.503 -10381.439 319.392 C -10381.437 319.364 -10381.442 319.337 -10381.453 319.312 C -10381.464 319.287 -10381.48 319.264 -10381.501 319.246 C -10381.522 319.227 -10381.548 319.212 -10381.575 319.202 C -10381.603 319.193 -10381.632 319.188 -10381.662 319.19 C -10381.865 319.211 -10382.06 319.275 -10382.235 319.377 C -10382.409 319.48 -10382.559 319.617 -10382.672 319.781 C -10383.363 320.666 -10383.834 321.693 -10384.048 322.782 L -10382.833 322.782 L -10383.124 323.731 L -10384.302 323.731 L -10384.302 323.727 Z M -10378.916 323.727 L -10379.889 327.474 C -10380.189 328.799 -10380.638 330.088 -10381.228 331.318 C -10381.579 332.018 -10382.103 332.624 -10382.753 333.082 C -10383.344 333.466 -10384.042 333.665 -10384.755 333.654 C -10385.125 333.683 -10385.494 333.59 -10385.802 333.39 C -10385.904 333.319 -10385.987 333.226 -10386.046 333.118 C -10386.104 333.011 -10386.135 332.891 -10386.137 332.77 C -10386.136 332.66 -10386.112 332.551 -10386.064 332.452 C -10386.015 332.352 -10385.945 332.264 -10385.858 332.194 C -10385.657 332.026 -10385.398 331.939 -10385.133 331.951 C -10385.028 331.943 -10384.924 331.956 -10384.825 331.988 C -10384.726 332.02 -10384.635 332.07 -10384.556 332.137 C -10384.49 332.197 -10384.439 332.271 -10384.405 332.351 C -10384.37 332.433 -10384.355 332.52 -10384.358 332.607 C -10384.351 332.676 -10384.359 332.746 -10384.38 332.812 C -10384.401 332.878 -10384.436 332.94 -10384.482 332.993 C -10384.537 333.037 -10384.579 333.094 -10384.606 333.159 L -10384.563 333.219 C -10384.53 333.247 -10384.488 333.261 -10384.445 333.259 C -10384.289 333.264 -10384.137 333.208 -10384.023 333.105 C -10383.727 332.854 -10383.499 332.537 -10383.36 332.181 C -10383.261 331.932 -10383.069 331.275 -10382.784 330.21 L -10381.079 323.73 L -10382.238 323.73 L -10381.965 322.781 C -10381.653 322.808 -10381.339 322.754 -10381.054 322.627 C -10380.793 322.437 -10380.586 322.186 -10380.453 321.897 C -10379.994 320.982 -10379.332 320.176 -10378.513 319.537 C -10377.854 319.068 -10377.056 318.818 -10376.238 318.824 C -10375.826 318.79 -10375.414 318.896 -10375.073 319.124 C -10374.955 319.218 -10374.861 319.338 -10374.797 319.473 C -10374.734 319.607 -10374.703 319.755 -10374.708 319.903 C -10374.694 320.148 -10374.781 320.388 -10374.949 320.572 C -10375.027 320.652 -10375.121 320.715 -10375.226 320.758 C -10375.33 320.8 -10375.443 320.821 -10375.557 320.819 C -10375.658 320.822 -10375.759 320.806 -10375.854 320.771 C -10375.948 320.737 -10376.035 320.684 -10376.108 320.617 C -10376.177 320.554 -10376.232 320.479 -10376.269 320.395 C -10376.307 320.312 -10376.326 320.221 -10376.325 320.13 C -10376.318 319.977 -10376.269 319.828 -10376.182 319.7 C -10376.117 319.606 -10376.071 319.502 -10376.046 319.392 C -10376.046 319.337 -10376.069 319.285 -10376.108 319.246 C -10376.154 319.207 -10376.214 319.187 -10376.276 319.19 C -10376.478 319.212 -10376.674 319.276 -10376.848 319.378 C -10377.022 319.48 -10377.172 319.618 -10377.286 319.781 C -10377.972 320.668 -10378.44 321.694 -10378.656 322.782 L -10377.441 322.782 L -10377.738 323.731 L -10378.916 323.731 L -10378.916 323.727 Z M -10375.017 327.028 C -10375.062 327.315 -10375.086 327.605 -10375.092 327.895 C -10375.101 328.072 -10375.074 328.25 -10375.013 328.417 C -10374.951 328.584 -10374.856 328.737 -10374.732 328.869 C -10374.605 328.991 -10374.453 329.088 -10374.286 329.15 C -10374.118 329.213 -10373.939 329.242 -10373.759 329.234 C -10373.35 329.229 -10372.947 329.135 -10372.582 328.958 C -10372.082 328.7 -10371.623 328.375 -10371.218 327.993 L -10370.964 328.212 C -10371.479 328.856 -10372.113 329.401 -10372.836 329.818 C -10373.455 330.139 -10374.147 330.304 -10374.85 330.298 C -10375.202 330.337 -10375.559 330.299 -10375.893 330.186 C -10376.228 330.074 -10376.533 329.89 -10376.784 329.649 C -10377.135 329.224 -10377.323 328.695 -10377.317 328.151 C -10377.301 327.211 -10377.025 326.292 -10376.517 325.491 C -10375.995 324.612 -10375.248 323.877 -10374.348 323.358 C -10373.521 322.848 -10372.564 322.571 -10371.584 322.555 C -10371.2 322.526 -10370.82 322.643 -10370.524 322.879 C -10370.406 322.983 -10370.313 323.109 -10370.252 323.251 C -10370.189 323.392 -10370.16 323.545 -10370.164 323.698 C -10370.169 324.105 -10370.289 324.504 -10370.511 324.85 C -10370.82 325.341 -10371.238 325.76 -10371.732 326.079 C -10372.24 326.397 -10372.796 326.636 -10373.381 326.788 C -10373.918 326.913 -10374.465 326.99 -10375.016 327.021 L -10375.017 327.028 Z M -10374.943 326.609 C -10374.551 326.563 -10374.167 326.466 -10373.803 326.321 C -10373.502 326.177 -10373.233 325.979 -10373.009 325.737 C -10372.728 325.437 -10372.5 325.094 -10372.334 324.723 C -10372.159 324.363 -10372.064 323.973 -10372.055 323.576 C -10372.049 323.511 -10372.058 323.446 -10372.079 323.384 C -10372.1 323.322 -10372.134 323.265 -10372.179 323.216 C -10372.222 323.173 -10372.274 323.139 -10372.332 323.117 C -10372.389 323.095 -10372.451 323.084 -10372.513 323.086 C -10372.694 323.113 -10372.866 323.175 -10373.021 323.269 C -10373.175 323.362 -10373.309 323.485 -10373.412 323.63 C -10374.137 324.502 -10374.659 325.515 -10374.942 326.6 L -10374.943 326.609 Z M -10365.522 322.554 L -10366.563 326.03 C -10366.085 325.305 -10365.562 324.609 -10364.995 323.946 C -10364.622 323.514 -10364.181 323.141 -10363.687 322.843 C -10363.371 322.663 -10363.013 322.562 -10362.646 322.552 C -10362.506 322.551 -10362.368 322.578 -10362.24 322.632 C -10362.112 322.686 -10361.997 322.764 -10361.902 322.864 C -10361.693 323.086 -10361.584 323.378 -10361.598 323.678 C -10361.609 324.053 -10361.676 324.425 -10361.797 324.782 L -10362.869 328.245 C -10362.933 328.437 -10362.977 328.635 -10362.999 328.836 C -10363 328.864 -10362.994 328.89 -10362.984 328.915 C -10362.973 328.94 -10362.957 328.963 -10362.937 328.982 C -10362.921 329.001 -10362.901 329.016 -10362.879 329.027 C -10362.857 329.039 -10362.832 329.046 -10362.807 329.047 C -10362.744 329.044 -10362.682 329.021 -10362.633 328.982 C -10362.403 328.79 -10362.202 328.565 -10362.038 328.317 C -10361.989 328.242 -10361.908 328.128 -10361.797 327.977 L -10361.481 328.163 C -10362.299 329.499 -10363.158 330.166 -10364.059 330.166 C -10364.354 330.184 -10364.645 330.091 -10364.871 329.907 C -10364.966 329.826 -10365.042 329.726 -10365.091 329.614 C -10365.142 329.502 -10365.166 329.38 -10365.162 329.258 C -10365.143 328.913 -10365.076 328.572 -10364.964 328.245 L -10363.917 324.782 C -10363.86 324.619 -10363.825 324.45 -10363.811 324.278 C -10363.811 324.248 -10363.818 324.219 -10363.831 324.192 C -10363.844 324.164 -10363.862 324.14 -10363.886 324.12 C -10363.932 324.077 -10363.994 324.052 -10364.059 324.052 C -10364.36 324.094 -10364.634 324.244 -10364.828 324.471 C -10365.755 325.402 -10366.51 326.48 -10367.059 327.659 L -10367.747 330.067 L -10369.879 330.067 L -10368.317 324.861 C -10368.194 324.507 -10368.117 324.139 -10368.088 323.766 C -10368.086 323.684 -10368.11 323.604 -10368.156 323.535 C -10368.211 323.466 -10368.287 323.415 -10368.373 323.389 C -10368.559 323.344 -10368.752 323.326 -10368.943 323.336 L -10368.85 323.028 L -10366.036 322.548 L -10365.522 322.548 L -10365.522 322.554 Z M -10354.21 322.554 L -10354.576 325.059 L -10354.886 325.059 C -10354.895 324.494 -10355.112 323.95 -10355.5 323.526 C -10355.644 323.359 -10355.822 323.223 -10356.024 323.127 C -10356.226 323.031 -10356.446 322.976 -10356.671 322.967 C -10356.905 322.958 -10357.133 323.037 -10357.31 323.186 C -10357.388 323.251 -10357.451 323.332 -10357.494 323.423 C -10357.537 323.514 -10357.558 323.614 -10357.557 323.713 C -10357.557 323.881 -10357.522 324.046 -10357.452 324.2 C -10357.32 324.427 -10357.155 324.634 -10356.962 324.816 C -10356.362 325.393 -10355.826 326.029 -10355.363 326.714 C -10355.173 327.055 -10355.075 327.438 -10355.078 327.825 C -10355.077 328.25 -10355.193 328.669 -10355.413 329.037 C -10355.646 329.43 -10355.993 329.749 -10356.411 329.954 C -10356.834 330.179 -10357.31 330.297 -10357.793 330.298 C -10358.198 330.286 -10358.6 330.223 -10358.989 330.112 C -10359.216 330.041 -10359.451 329.997 -10359.689 329.982 C -10359.802 329.976 -10359.915 329.997 -10360.018 330.042 C -10360.121 330.11 -10360.21 330.196 -10360.278 330.297 L -10360.582 330.297 L -10360.173 327.596 L -10359.906 327.596 C -10359.78 328.081 -10359.597 328.551 -10359.361 328.996 C -10359.194 329.269 -10358.96 329.498 -10358.679 329.661 C -10358.435 329.814 -10358.152 329.899 -10357.861 329.908 C -10357.721 329.913 -10357.582 329.89 -10357.451 329.842 C -10357.32 329.794 -10357.2 329.722 -10357.099 329.629 C -10357.004 329.543 -10356.928 329.44 -10356.877 329.324 C -10356.826 329.209 -10356.8 329.085 -10356.801 328.959 C -10356.801 328.702 -10356.867 328.448 -10356.993 328.221 C -10357.253 327.821 -10357.557 327.448 -10357.898 327.11 C -10358.39 326.63 -10358.823 326.097 -10359.187 325.521 C -10359.338 325.234 -10359.412 324.917 -10359.404 324.596 C -10359.411 324.321 -10359.355 324.048 -10359.242 323.796 C -10359.129 323.544 -10358.96 323.319 -10358.747 323.136 C -10358.234 322.72 -10357.575 322.511 -10356.907 322.552 C -10356.477 322.564 -10356.051 322.625 -10355.636 322.732 C -10355.44 322.784 -10355.238 322.815 -10355.035 322.822 C -10354.931 322.823 -10354.828 322.799 -10354.736 322.752 C -10354.644 322.706 -10354.566 322.638 -10354.508 322.555 L -10354.21 322.555 L -10354.21 322.554 Z" style="fill: rgb(189, 189, 189);"/>
        <title>rs-logo</title>
      </g>
    </g>
  </g>
  <title>Logo</title>
  <desc>Created using Figma</desc>
</svg>